<svg version="1.1" baseProfile="full" shape-rendering="crispEdges" width="300" height="300" xmlns="http://www.w3.org/2000/svg"><rect x="0" y="0" width="300" height="300" fill="#FFFFFF" />
<rect x="29.2682926829268" y="29.2682926829268" width="7.31707317073171" height="7.31707317073171" fill="#000000" />
<rect x="29.2682926829268" y="36.5853658536585" width="7.31707317073171" height="7.31707317073171" fill="#000000" />
<rect x="29.2682926829268" y="43.9024390243902" width="7.31707317073171" height="7.31707317073171" fill="#000000" />
<rect x="29.2682926829268" y="51.219512195122" width="7.31707317073171" height="7.31707317073171" fill="#000000" />
<rect x="29.2682926829268" y="58.5365853658537" width="7.31707317073171" height="7.31707317073171" fill="#000000" />
<rect x="29.2682926829268" y="65.8536585365854" width="7.31707317073171" height="7.31707317073171" fill="#000000" />
<rect x="29.2682926829268" y="73.1707317073171" width="7.31707317073171" height="7.31707317073171" fill="#000000" />
<rect x="29.2682926829268" y="87.8048780487805" width="7.31707317073171" height="7.31707317073171" fill="#000000" />
<rect x="29.2682926829268" y="117.073170731707" width="7.31707317073171" height="7.31707317073171" fill="#000000" />
<rect x="29.2682926829268" y="160.975609756098" width="7.31707317073171" height="7.31707317073171" fill="#000000" />
<rect x="29.2682926829268" y="168.292682926829" width="7.31707317073171" height="7.31707317073171" fill="#000000" />
<rect x="29.2682926829268" y="175.609756097561" width="7.31707317073171" height="7.31707317073171" fill="#000000" />
<rect x="29.2682926829268" y="182.926829268293" width="7.31707317073171" height="7.31707317073171" fill="#000000" />
<rect x="29.2682926829268" y="204.878048780488" width="7.31707317073171" height="7.31707317073171" fill="#000000" />
<rect x="29.2682926829268" y="219.512195121951" width="7.31707317073171" height="7.31707317073171" fill="#000000" />
<rect x="29.2682926829268" y="226.829268292683" width="7.31707317073171" height="7.31707317073171" fill="#000000" />
<rect x="29.2682926829268" y="234.146341463415" width="7.31707317073171" height="7.31707317073171" fill="#000000" />
<rect x="29.2682926829268" y="241.463414634146" width="7.31707317073171" height="7.31707317073171" fill="#000000" />
<rect x="29.2682926829268" y="248.780487804878" width="7.31707317073171" height="7.31707317073171" fill="#000000" />
<rect x="29.2682926829268" y="256.09756097561" width="7.31707317073171" height="7.31707317073171" fill="#000000" />
<rect x="29.2682926829268" y="263.414634146341" width="7.31707317073171" height="7.31707317073171" fill="#000000" />
<rect x="36.5853658536585" y="29.2682926829268" width="7.31707317073171" height="7.31707317073171" fill="#000000" />
<rect x="36.5853658536585" y="73.1707317073171" width="7.31707317073171" height="7.31707317073171" fill="#000000" />
<rect x="36.5853658536585" y="87.8048780487805" width="7.31707317073171" height="7.31707317073171" fill="#000000" />
<rect x="36.5853658536585" y="95.1219512195122" width="7.31707317073171" height="7.31707317073171" fill="#000000" />
<rect x="36.5853658536585" y="124.390243902439" width="7.31707317073171" height="7.31707317073171" fill="#000000" />
<rect x="36.5853658536585" y="160.975609756098" width="7.31707317073171" height="7.31707317073171" fill="#000000" />
<rect x="36.5853658536585" y="175.609756097561" width="7.31707317073171" height="7.31707317073171" fill="#000000" />
<rect x="36.5853658536585" y="204.878048780488" width="7.31707317073171" height="7.31707317073171" fill="#000000" />
<rect x="36.5853658536585" y="219.512195121951" width="7.31707317073171" height="7.31707317073171" fill="#000000" />
<rect x="36.5853658536585" y="263.414634146341" width="7.31707317073171" height="7.31707317073171" fill="#000000" />
<rect x="43.9024390243902" y="29.2682926829268" width="7.31707317073171" height="7.31707317073171" fill="#000000" />
<rect x="43.9024390243902" y="43.9024390243902" width="7.31707317073171" height="7.31707317073171" fill="#000000" />
<rect x="43.9024390243902" y="51.219512195122" width="7.31707317073171" height="7.31707317073171" fill="#000000" />
<rect x="43.9024390243902" y="58.5365853658537" width="7.31707317073171" height="7.31707317073171" fill="#000000" />
<rect x="43.9024390243902" y="73.1707317073171" width="7.31707317073171" height="7.31707317073171" fill="#000000" />
<rect x="43.9024390243902" y="102.439024390244" width="7.31707317073171" height="7.31707317073171" fill="#000000" />
<rect x="43.9024390243902" y="109.756097560976" width="7.31707317073171" height="7.31707317073171" fill="#000000" />
<rect x="43.9024390243902" y="117.073170731707" width="7.31707317073171" height="7.31707317073171" fill="#000000" />
<rect x="43.9024390243902" y="146.341463414634" width="7.31707317073171" height="7.31707317073171" fill="#000000" />
<rect x="43.9024390243902" y="160.975609756098" width="7.31707317073171" height="7.31707317073171" fill="#000000" />
<rect x="43.9024390243902" y="168.292682926829" width="7.31707317073171" height="7.31707317073171" fill="#000000" />
<rect x="43.9024390243902" y="204.878048780488" width="7.31707317073171" height="7.31707317073171" fill="#000000" />
<rect x="43.9024390243902" y="219.512195121951" width="7.31707317073171" height="7.31707317073171" fill="#000000" />
<rect x="43.9024390243902" y="234.146341463415" width="7.31707317073171" height="7.31707317073171" fill="#000000" />
<rect x="43.9024390243902" y="241.463414634146" width="7.31707317073171" height="7.31707317073171" fill="#000000" />
<rect x="43.9024390243902" y="248.780487804878" width="7.31707317073171" height="7.31707317073171" fill="#000000" />
<rect x="43.9024390243902" y="263.414634146341" width="7.31707317073171" height="7.31707317073171" fill="#000000" />
<rect x="51.219512195122" y="29.2682926829268" width="7.31707317073171" height="7.31707317073171" fill="#000000" />
<rect x="51.219512195122" y="43.9024390243902" width="7.31707317073171" height="7.31707317073171" fill="#000000" />
<rect x="51.219512195122" y="51.219512195122" width="7.31707317073171" height="7.31707317073171" fill="#000000" />
<rect x="51.219512195122" y="58.5365853658537" width="7.31707317073171" height="7.31707317073171" fill="#000000" />
<rect x="51.219512195122" y="73.1707317073171" width="7.31707317073171" height="7.31707317073171" fill="#000000" />
<rect x="51.219512195122" y="102.439024390244" width="7.31707317073171" height="7.31707317073171" fill="#000000" />
<rect x="51.219512195122" y="109.756097560976" width="7.31707317073171" height="7.31707317073171" fill="#000000" />
<rect x="51.219512195122" y="117.073170731707" width="7.31707317073171" height="7.31707317073171" fill="#000000" />
<rect x="51.219512195122" y="124.390243902439" width="7.31707317073171" height="7.31707317073171" fill="#000000" />
<rect x="51.219512195122" y="139.024390243902" width="7.31707317073171" height="7.31707317073171" fill="#000000" />
<rect x="51.219512195122" y="160.975609756098" width="7.31707317073171" height="7.31707317073171" fill="#000000" />
<rect x="51.219512195122" y="168.292682926829" width="7.31707317073171" height="7.31707317073171" fill="#000000" />
<rect x="51.219512195122" y="175.609756097561" width="7.31707317073171" height="7.31707317073171" fill="#000000" />
<rect x="51.219512195122" y="182.926829268293" width="7.31707317073171" height="7.31707317073171" fill="#000000" />
<rect x="51.219512195122" y="190.243902439024" width="7.31707317073171" height="7.31707317073171" fill="#000000" />
<rect x="51.219512195122" y="197.560975609756" width="7.31707317073171" height="7.31707317073171" fill="#000000" />
<rect x="51.219512195122" y="219.512195121951" width="7.31707317073171" height="7.31707317073171" fill="#000000" />
<rect x="51.219512195122" y="234.146341463415" width="7.31707317073171" height="7.31707317073171" fill="#000000" />
<rect x="51.219512195122" y="241.463414634146" width="7.31707317073171" height="7.31707317073171" fill="#000000" />
<rect x="51.219512195122" y="248.780487804878" width="7.31707317073171" height="7.31707317073171" fill="#000000" />
<rect x="51.219512195122" y="263.414634146341" width="7.31707317073171" height="7.31707317073171" fill="#000000" />
<rect x="58.5365853658537" y="29.2682926829268" width="7.31707317073171" height="7.31707317073171" fill="#000000" />
<rect x="58.5365853658537" y="43.9024390243902" width="7.31707317073171" height="7.31707317073171" fill="#000000" />
<rect x="58.5365853658537" y="51.219512195122" width="7.31707317073171" height="7.31707317073171" fill="#000000" />
<rect x="58.5365853658537" y="58.5365853658537" width="7.31707317073171" height="7.31707317073171" fill="#000000" />
<rect x="58.5365853658537" y="73.1707317073171" width="7.31707317073171" height="7.31707317073171" fill="#000000" />
<rect x="58.5365853658537" y="87.8048780487805" width="7.31707317073171" height="7.31707317073171" fill="#000000" />
<rect x="58.5365853658537" y="102.439024390244" width="7.31707317073171" height="7.31707317073171" fill="#000000" />
<rect x="58.5365853658537" y="109.756097560976" width="7.31707317073171" height="7.31707317073171" fill="#000000" />
<rect x="58.5365853658537" y="117.073170731707" width="7.31707317073171" height="7.31707317073171" fill="#000000" />
<rect x="58.5365853658537" y="131.707317073171" width="7.31707317073171" height="7.31707317073171" fill="#000000" />
<rect x="58.5365853658537" y="139.024390243902" width="7.31707317073171" height="7.31707317073171" fill="#000000" />
<rect x="58.5365853658537" y="146.341463414634" width="7.31707317073171" height="7.31707317073171" fill="#000000" />
<rect x="58.5365853658537" y="153.658536585366" width="7.31707317073171" height="7.31707317073171" fill="#000000" />
<rect x="58.5365853658537" y="204.878048780488" width="7.31707317073171" height="7.31707317073171" fill="#000000" />
<rect x="58.5365853658537" y="219.512195121951" width="7.31707317073171" height="7.31707317073171" fill="#000000" />
<rect x="58.5365853658537" y="234.146341463415" width="7.31707317073171" height="7.31707317073171" fill="#000000" />
<rect x="58.5365853658537" y="241.463414634146" width="7.31707317073171" height="7.31707317073171" fill="#000000" />
<rect x="58.5365853658537" y="248.780487804878" width="7.31707317073171" height="7.31707317073171" fill="#000000" />
<rect x="58.5365853658537" y="263.414634146341" width="7.31707317073171" height="7.31707317073171" fill="#000000" />
<rect x="65.8536585365854" y="29.2682926829268" width="7.31707317073171" height="7.31707317073171" fill="#000000" />
<rect x="65.8536585365854" y="73.1707317073171" width="7.31707317073171" height="7.31707317073171" fill="#000000" />
<rect x="65.8536585365854" y="87.8048780487805" width="7.31707317073171" height="7.31707317073171" fill="#000000" />
<rect x="65.8536585365854" y="95.1219512195122" width="7.31707317073171" height="7.31707317073171" fill="#000000" />
<rect x="65.8536585365854" y="109.756097560976" width="7.31707317073171" height="7.31707317073171" fill="#000000" />
<rect x="65.8536585365854" y="124.390243902439" width="7.31707317073171" height="7.31707317073171" fill="#000000" />
<rect x="65.8536585365854" y="153.658536585366" width="7.31707317073171" height="7.31707317073171" fill="#000000" />
<rect x="65.8536585365854" y="175.609756097561" width="7.31707317073171" height="7.31707317073171" fill="#000000" />
<rect x="65.8536585365854" y="182.926829268293" width="7.31707317073171" height="7.31707317073171" fill="#000000" />
<rect x="65.8536585365854" y="197.560975609756" width="7.31707317073171" height="7.31707317073171" fill="#000000" />
<rect x="65.8536585365854" y="219.512195121951" width="7.31707317073171" height="7.31707317073171" fill="#000000" />
<rect x="65.8536585365854" y="263.414634146341" width="7.31707317073171" height="7.31707317073171" fill="#000000" />
<rect x="73.1707317073171" y="29.2682926829268" width="7.31707317073171" height="7.31707317073171" fill="#000000" />
<rect x="73.1707317073171" y="36.5853658536585" width="7.31707317073171" height="7.31707317073171" fill="#000000" />
<rect x="73.1707317073171" y="43.9024390243902" width="7.31707317073171" height="7.31707317073171" fill="#000000" />
<rect x="73.1707317073171" y="51.219512195122" width="7.31707317073171" height="7.31707317073171" fill="#000000" />
<rect x="73.1707317073171" y="58.5365853658537" width="7.31707317073171" height="7.31707317073171" fill="#000000" />
<rect x="73.1707317073171" y="65.8536585365854" width="7.31707317073171" height="7.31707317073171" fill="#000000" />
<rect x="73.1707317073171" y="73.1707317073171" width="7.31707317073171" height="7.31707317073171" fill="#000000" />
<rect x="73.1707317073171" y="87.8048780487805" width="7.31707317073171" height="7.31707317073171" fill="#000000" />
<rect x="73.1707317073171" y="102.439024390244" width="7.31707317073171" height="7.31707317073171" fill="#000000" />
<rect x="73.1707317073171" y="117.073170731707" width="7.31707317073171" height="7.31707317073171" fill="#000000" />
<rect x="73.1707317073171" y="131.707317073171" width="7.31707317073171" height="7.31707317073171" fill="#000000" />
<rect x="73.1707317073171" y="146.341463414634" width="7.31707317073171" height="7.31707317073171" fill="#000000" />
<rect x="73.1707317073171" y="160.975609756098" width="7.31707317073171" height="7.31707317073171" fill="#000000" />
<rect x="73.1707317073171" y="175.609756097561" width="7.31707317073171" height="7.31707317073171" fill="#000000" />
<rect x="73.1707317073171" y="190.243902439024" width="7.31707317073171" height="7.31707317073171" fill="#000000" />
<rect x="73.1707317073171" y="204.878048780488" width="7.31707317073171" height="7.31707317073171" fill="#000000" />
<rect x="73.1707317073171" y="219.512195121951" width="7.31707317073171" height="7.31707317073171" fill="#000000" />
<rect x="73.1707317073171" y="226.829268292683" width="7.31707317073171" height="7.31707317073171" fill="#000000" />
<rect x="73.1707317073171" y="234.146341463415" width="7.31707317073171" height="7.31707317073171" fill="#000000" />
<rect x="73.1707317073171" y="241.463414634146" width="7.31707317073171" height="7.31707317073171" fill="#000000" />
<rect x="73.1707317073171" y="248.780487804878" width="7.31707317073171" height="7.31707317073171" fill="#000000" />
<rect x="73.1707317073171" y="256.09756097561" width="7.31707317073171" height="7.31707317073171" fill="#000000" />
<rect x="73.1707317073171" y="263.414634146341" width="7.31707317073171" height="7.31707317073171" fill="#000000" />
<rect x="80.4878048780488" y="95.1219512195122" width="7.31707317073171" height="7.31707317073171" fill="#000000" />
<rect x="80.4878048780488" y="102.439024390244" width="7.31707317073171" height="7.31707317073171" fill="#000000" />
<rect x="80.4878048780488" y="146.341463414634" width="7.31707317073171" height="7.31707317073171" fill="#000000" />
<rect x="80.4878048780488" y="190.243902439024" width="7.31707317073171" height="7.31707317073171" fill="#000000" />
<rect x="80.4878048780488" y="204.878048780488" width="7.31707317073171" height="7.31707317073171" fill="#000000" />
<rect x="87.8048780487805" y="29.2682926829268" width="7.31707317073171" height="7.31707317073171" fill="#000000" />
<rect x="87.8048780487805" y="36.5853658536585" width="7.31707317073171" height="7.31707317073171" fill="#000000" />
<rect x="87.8048780487805" y="43.9024390243902" width="7.31707317073171" height="7.31707317073171" fill="#000000" />
<rect x="87.8048780487805" y="51.219512195122" width="7.31707317073171" height="7.31707317073171" fill="#000000" />
<rect x="87.8048780487805" y="65.8536585365854" width="7.31707317073171" height="7.31707317073171" fill="#000000" />
<rect x="87.8048780487805" y="73.1707317073171" width="7.31707317073171" height="7.31707317073171" fill="#000000" />
<rect x="87.8048780487805" y="95.1219512195122" width="7.31707317073171" height="7.31707317073171" fill="#000000" />
<rect x="87.8048780487805" y="102.439024390244" width="7.31707317073171" height="7.31707317073171" fill="#000000" />
<rect x="87.8048780487805" y="109.756097560976" width="7.31707317073171" height="7.31707317073171" fill="#000000" />
<rect x="87.8048780487805" y="139.024390243902" width="7.31707317073171" height="7.31707317073171" fill="#000000" />
<rect x="87.8048780487805" y="146.341463414634" width="7.31707317073171" height="7.31707317073171" fill="#000000" />
<rect x="87.8048780487805" y="160.975609756098" width="7.31707317073171" height="7.31707317073171" fill="#000000" />
<rect x="87.8048780487805" y="175.609756097561" width="7.31707317073171" height="7.31707317073171" fill="#000000" />
<rect x="87.8048780487805" y="182.926829268293" width="7.31707317073171" height="7.31707317073171" fill="#000000" />
<rect x="87.8048780487805" y="190.243902439024" width="7.31707317073171" height="7.31707317073171" fill="#000000" />
<rect x="87.8048780487805" y="204.878048780488" width="7.31707317073171" height="7.31707317073171" fill="#000000" />
<rect x="87.8048780487805" y="212.19512195122" width="7.31707317073171" height="7.31707317073171" fill="#000000" />
<rect x="87.8048780487805" y="226.829268292683" width="7.31707317073171" height="7.31707317073171" fill="#000000" />
<rect x="87.8048780487805" y="234.146341463415" width="7.31707317073171" height="7.31707317073171" fill="#000000" />
<rect x="87.8048780487805" y="256.09756097561" width="7.31707317073171" height="7.31707317073171" fill="#000000" />
<rect x="87.8048780487805" y="263.414634146341" width="7.31707317073171" height="7.31707317073171" fill="#000000" />
<rect x="95.1219512195122" y="29.2682926829268" width="7.31707317073171" height="7.31707317073171" fill="#000000" />
<rect x="95.1219512195122" y="36.5853658536585" width="7.31707317073171" height="7.31707317073171" fill="#000000" />
<rect x="95.1219512195122" y="51.219512195122" width="7.31707317073171" height="7.31707317073171" fill="#000000" />
<rect x="95.1219512195122" y="80.4878048780488" width="7.31707317073171" height="7.31707317073171" fill="#000000" />
<rect x="95.1219512195122" y="95.1219512195122" width="7.31707317073171" height="7.31707317073171" fill="#000000" />
<rect x="95.1219512195122" y="124.390243902439" width="7.31707317073171" height="7.31707317073171" fill="#000000" />
<rect x="95.1219512195122" y="139.024390243902" width="7.31707317073171" height="7.31707317073171" fill="#000000" />
<rect x="95.1219512195122" y="146.341463414634" width="7.31707317073171" height="7.31707317073171" fill="#000000" />
<rect x="95.1219512195122" y="168.292682926829" width="7.31707317073171" height="7.31707317073171" fill="#000000" />
<rect x="95.1219512195122" y="175.609756097561" width="7.31707317073171" height="7.31707317073171" fill="#000000" />
<rect x="95.1219512195122" y="190.243902439024" width="7.31707317073171" height="7.31707317073171" fill="#000000" />
<rect x="95.1219512195122" y="197.560975609756" width="7.31707317073171" height="7.31707317073171" fill="#000000" />
<rect x="95.1219512195122" y="212.19512195122" width="7.31707317073171" height="7.31707317073171" fill="#000000" />
<rect x="95.1219512195122" y="226.829268292683" width="7.31707317073171" height="7.31707317073171" fill="#000000" />
<rect x="95.1219512195122" y="248.780487804878" width="7.31707317073171" height="7.31707317073171" fill="#000000" />
<rect x="95.1219512195122" y="263.414634146341" width="7.31707317073171" height="7.31707317073171" fill="#000000" />
<rect x="102.439024390244" y="29.2682926829268" width="7.31707317073171" height="7.31707317073171" fill="#000000" />
<rect x="102.439024390244" y="36.5853658536585" width="7.31707317073171" height="7.31707317073171" fill="#000000" />
<rect x="102.439024390244" y="43.9024390243902" width="7.31707317073171" height="7.31707317073171" fill="#000000" />
<rect x="102.439024390244" y="73.1707317073171" width="7.31707317073171" height="7.31707317073171" fill="#000000" />
<rect x="102.439024390244" y="95.1219512195122" width="7.31707317073171" height="7.31707317073171" fill="#000000" />
<rect x="102.439024390244" y="109.756097560976" width="7.31707317073171" height="7.31707317073171" fill="#000000" />
<rect x="102.439024390244" y="117.073170731707" width="7.31707317073171" height="7.31707317073171" fill="#000000" />
<rect x="102.439024390244" y="131.707317073171" width="7.31707317073171" height="7.31707317073171" fill="#000000" />
<rect x="102.439024390244" y="146.341463414634" width="7.31707317073171" height="7.31707317073171" fill="#000000" />
<rect x="102.439024390244" y="168.292682926829" width="7.31707317073171" height="7.31707317073171" fill="#000000" />
<rect x="102.439024390244" y="182.926829268293" width="7.31707317073171" height="7.31707317073171" fill="#000000" />
<rect x="102.439024390244" y="190.243902439024" width="7.31707317073171" height="7.31707317073171" fill="#000000" />
<rect x="102.439024390244" y="204.878048780488" width="7.31707317073171" height="7.31707317073171" fill="#000000" />
<rect x="102.439024390244" y="219.512195121951" width="7.31707317073171" height="7.31707317073171" fill="#000000" />
<rect x="102.439024390244" y="226.829268292683" width="7.31707317073171" height="7.31707317073171" fill="#000000" />
<rect x="102.439024390244" y="234.146341463415" width="7.31707317073171" height="7.31707317073171" fill="#000000" />
<rect x="109.756097560976" y="43.9024390243902" width="7.31707317073171" height="7.31707317073171" fill="#000000" />
<rect x="109.756097560976" y="51.219512195122" width="7.31707317073171" height="7.31707317073171" fill="#000000" />
<rect x="109.756097560976" y="65.8536585365854" width="7.31707317073171" height="7.31707317073171" fill="#000000" />
<rect x="109.756097560976" y="87.8048780487805" width="7.31707317073171" height="7.31707317073171" fill="#000000" />
<rect x="109.756097560976" y="102.439024390244" width="7.31707317073171" height="7.31707317073171" fill="#000000" />
<rect x="109.756097560976" y="109.756097560976" width="7.31707317073171" height="7.31707317073171" fill="#000000" />
<rect x="109.756097560976" y="146.341463414634" width="7.31707317073171" height="7.31707317073171" fill="#000000" />
<rect x="109.756097560976" y="160.975609756098" width="7.31707317073171" height="7.31707317073171" fill="#000000" />
<rect x="109.756097560976" y="168.292682926829" width="7.31707317073171" height="7.31707317073171" fill="#000000" />
<rect x="109.756097560976" y="204.878048780488" width="7.31707317073171" height="7.31707317073171" fill="#000000" />
<rect x="109.756097560976" y="219.512195121951" width="7.31707317073171" height="7.31707317073171" fill="#000000" />
<rect x="109.756097560976" y="226.829268292683" width="7.31707317073171" height="7.31707317073171" fill="#000000" />
<rect x="109.756097560976" y="263.414634146341" width="7.31707317073171" height="7.31707317073171" fill="#000000" />
<rect x="117.073170731707" y="29.2682926829268" width="7.31707317073171" height="7.31707317073171" fill="#000000" />
<rect x="117.073170731707" y="65.8536585365854" width="7.31707317073171" height="7.31707317073171" fill="#000000" />
<rect x="117.073170731707" y="73.1707317073171" width="7.31707317073171" height="7.31707317073171" fill="#000000" />
<rect x="117.073170731707" y="80.4878048780488" width="7.31707317073171" height="7.31707317073171" fill="#000000" />
<rect x="117.073170731707" y="95.1219512195122" width="7.31707317073171" height="7.31707317073171" fill="#000000" />
<rect x="117.073170731707" y="102.439024390244" width="7.31707317073171" height="7.31707317073171" fill="#000000" />
<rect x="117.073170731707" y="117.073170731707" width="7.31707317073171" height="7.31707317073171" fill="#000000" />
<rect x="117.073170731707" y="139.024390243902" width="7.31707317073171" height="7.31707317073171" fill="#000000" />
<rect x="117.073170731707" y="153.658536585366" width="7.31707317073171" height="7.31707317073171" fill="#000000" />
<rect x="117.073170731707" y="160.975609756098" width="7.31707317073171" height="7.31707317073171" fill="#000000" />
<rect x="117.073170731707" y="175.609756097561" width="7.31707317073171" height="7.31707317073171" fill="#000000" />
<rect x="117.073170731707" y="197.560975609756" width="7.31707317073171" height="7.31707317073171" fill="#000000" />
<rect x="117.073170731707" y="212.19512195122" width="7.31707317073171" height="7.31707317073171" fill="#000000" />
<rect x="117.073170731707" y="219.512195121951" width="7.31707317073171" height="7.31707317073171" fill="#000000" />
<rect x="117.073170731707" y="234.146341463415" width="7.31707317073171" height="7.31707317073171" fill="#000000" />
<rect x="117.073170731707" y="256.09756097561" width="7.31707317073171" height="7.31707317073171" fill="#000000" />
<rect x="124.390243902439" y="43.9024390243902" width="7.31707317073171" height="7.31707317073171" fill="#000000" />
<rect x="124.390243902439" y="58.5365853658537" width="7.31707317073171" height="7.31707317073171" fill="#000000" />
<rect x="124.390243902439" y="65.8536585365854" width="7.31707317073171" height="7.31707317073171" fill="#000000" />
<rect x="124.390243902439" y="87.8048780487805" width="7.31707317073171" height="7.31707317073171" fill="#000000" />
<rect x="124.390243902439" y="102.439024390244" width="7.31707317073171" height="7.31707317073171" fill="#000000" />
<rect x="124.390243902439" y="109.756097560976" width="7.31707317073171" height="7.31707317073171" fill="#000000" />
<rect x="124.390243902439" y="117.073170731707" width="7.31707317073171" height="7.31707317073171" fill="#000000" />
<rect x="124.390243902439" y="124.390243902439" width="7.31707317073171" height="7.31707317073171" fill="#000000" />
<rect x="124.390243902439" y="146.341463414634" width="7.31707317073171" height="7.31707317073171" fill="#000000" />
<rect x="124.390243902439" y="160.975609756098" width="7.31707317073171" height="7.31707317073171" fill="#000000" />
<rect x="124.390243902439" y="168.292682926829" width="7.31707317073171" height="7.31707317073171" fill="#000000" />
<rect x="124.390243902439" y="175.609756097561" width="7.31707317073171" height="7.31707317073171" fill="#000000" />
<rect x="124.390243902439" y="182.926829268293" width="7.31707317073171" height="7.31707317073171" fill="#000000" />
<rect x="124.390243902439" y="204.878048780488" width="7.31707317073171" height="7.31707317073171" fill="#000000" />
<rect x="124.390243902439" y="219.512195121951" width="7.31707317073171" height="7.31707317073171" fill="#000000" />
<rect x="124.390243902439" y="226.829268292683" width="7.31707317073171" height="7.31707317073171" fill="#000000" />
<rect x="124.390243902439" y="234.146341463415" width="7.31707317073171" height="7.31707317073171" fill="#000000" />
<rect x="124.390243902439" y="241.463414634146" width="7.31707317073171" height="7.31707317073171" fill="#000000" />
<rect x="124.390243902439" y="263.414634146341" width="7.31707317073171" height="7.31707317073171" fill="#000000" />
<rect x="131.707317073171" y="29.2682926829268" width="7.31707317073171" height="7.31707317073171" fill="#000000" />
<rect x="131.707317073171" y="51.219512195122" width="7.31707317073171" height="7.31707317073171" fill="#000000" />
<rect x="131.707317073171" y="58.5365853658537" width="7.31707317073171" height="7.31707317073171" fill="#000000" />
<rect x="131.707317073171" y="65.8536585365854" width="7.31707317073171" height="7.31707317073171" fill="#000000" />
<rect x="131.707317073171" y="73.1707317073171" width="7.31707317073171" height="7.31707317073171" fill="#000000" />
<rect x="131.707317073171" y="80.4878048780488" width="7.31707317073171" height="7.31707317073171" fill="#000000" />
<rect x="131.707317073171" y="87.8048780487805" width="7.31707317073171" height="7.31707317073171" fill="#000000" />
<rect x="131.707317073171" y="102.439024390244" width="7.31707317073171" height="7.31707317073171" fill="#000000" />
<rect x="131.707317073171" y="124.390243902439" width="7.31707317073171" height="7.31707317073171" fill="#000000" />
<rect x="131.707317073171" y="139.024390243902" width="7.31707317073171" height="7.31707317073171" fill="#000000" />
<rect x="131.707317073171" y="146.341463414634" width="7.31707317073171" height="7.31707317073171" fill="#000000" />
<rect x="131.707317073171" y="160.975609756098" width="7.31707317073171" height="7.31707317073171" fill="#000000" />
<rect x="131.707317073171" y="182.926829268293" width="7.31707317073171" height="7.31707317073171" fill="#000000" />
<rect x="131.707317073171" y="197.560975609756" width="7.31707317073171" height="7.31707317073171" fill="#000000" />
<rect x="131.707317073171" y="204.878048780488" width="7.31707317073171" height="7.31707317073171" fill="#000000" />
<rect x="131.707317073171" y="219.512195121951" width="7.31707317073171" height="7.31707317073171" fill="#000000" />
<rect x="131.707317073171" y="241.463414634146" width="7.31707317073171" height="7.31707317073171" fill="#000000" />
<rect x="131.707317073171" y="256.09756097561" width="7.31707317073171" height="7.31707317073171" fill="#000000" />
<rect x="131.707317073171" y="263.414634146341" width="7.31707317073171" height="7.31707317073171" fill="#000000" />
<rect x="139.024390243902" y="51.219512195122" width="7.31707317073171" height="7.31707317073171" fill="#000000" />
<rect x="139.024390243902" y="95.1219512195122" width="7.31707317073171" height="7.31707317073171" fill="#000000" />
<rect x="139.024390243902" y="102.439024390244" width="7.31707317073171" height="7.31707317073171" fill="#000000" />
<rect x="139.024390243902" y="131.707317073171" width="7.31707317073171" height="7.31707317073171" fill="#000000" />
<rect x="139.024390243902" y="160.975609756098" width="7.31707317073171" height="7.31707317073171" fill="#000000" />
<rect x="139.024390243902" y="168.292682926829" width="7.31707317073171" height="7.31707317073171" fill="#000000" />
<rect x="139.024390243902" y="175.609756097561" width="7.31707317073171" height="7.31707317073171" fill="#000000" />
<rect x="139.024390243902" y="182.926829268293" width="7.31707317073171" height="7.31707317073171" fill="#000000" />
<rect x="139.024390243902" y="190.243902439024" width="7.31707317073171" height="7.31707317073171" fill="#000000" />
<rect x="139.024390243902" y="197.560975609756" width="7.31707317073171" height="7.31707317073171" fill="#000000" />
<rect x="139.024390243902" y="204.878048780488" width="7.31707317073171" height="7.31707317073171" fill="#000000" />
<rect x="139.024390243902" y="212.19512195122" width="7.31707317073171" height="7.31707317073171" fill="#000000" />
<rect x="139.024390243902" y="219.512195121951" width="7.31707317073171" height="7.31707317073171" fill="#000000" />
<rect x="139.024390243902" y="226.829268292683" width="7.31707317073171" height="7.31707317073171" fill="#000000" />
<rect x="139.024390243902" y="241.463414634146" width="7.31707317073171" height="7.31707317073171" fill="#000000" />
<rect x="139.024390243902" y="248.780487804878" width="7.31707317073171" height="7.31707317073171" fill="#000000" />
<rect x="139.024390243902" y="263.414634146341" width="7.31707317073171" height="7.31707317073171" fill="#000000" />
<rect x="146.341463414634" y="36.5853658536585" width="7.31707317073171" height="7.31707317073171" fill="#000000" />
<rect x="146.341463414634" y="43.9024390243902" width="7.31707317073171" height="7.31707317073171" fill="#000000" />
<rect x="146.341463414634" y="51.219512195122" width="7.31707317073171" height="7.31707317073171" fill="#000000" />
<rect x="146.341463414634" y="58.5365853658537" width="7.31707317073171" height="7.31707317073171" fill="#000000" />
<rect x="146.341463414634" y="73.1707317073171" width="7.31707317073171" height="7.31707317073171" fill="#000000" />
<rect x="146.341463414634" y="80.4878048780488" width="7.31707317073171" height="7.31707317073171" fill="#000000" />
<rect x="146.341463414634" y="87.8048780487805" width="7.31707317073171" height="7.31707317073171" fill="#000000" />
<rect x="146.341463414634" y="102.439024390244" width="7.31707317073171" height="7.31707317073171" fill="#000000" />
<rect x="146.341463414634" y="109.756097560976" width="7.31707317073171" height="7.31707317073171" fill="#000000" />
<rect x="146.341463414634" y="124.390243902439" width="7.31707317073171" height="7.31707317073171" fill="#000000" />
<rect x="146.341463414634" y="139.024390243902" width="7.31707317073171" height="7.31707317073171" fill="#000000" />
<rect x="146.341463414634" y="153.658536585366" width="7.31707317073171" height="7.31707317073171" fill="#000000" />
<rect x="146.341463414634" y="175.609756097561" width="7.31707317073171" height="7.31707317073171" fill="#000000" />
<rect x="146.341463414634" y="190.243902439024" width="7.31707317073171" height="7.31707317073171" fill="#000000" />
<rect x="146.341463414634" y="212.19512195122" width="7.31707317073171" height="7.31707317073171" fill="#000000" />
<rect x="146.341463414634" y="241.463414634146" width="7.31707317073171" height="7.31707317073171" fill="#000000" />
<rect x="146.341463414634" y="248.780487804878" width="7.31707317073171" height="7.31707317073171" fill="#000000" />
<rect x="153.658536585366" y="36.5853658536585" width="7.31707317073171" height="7.31707317073171" fill="#000000" />
<rect x="153.658536585366" y="43.9024390243902" width="7.31707317073171" height="7.31707317073171" fill="#000000" />
<rect x="153.658536585366" y="80.4878048780488" width="7.31707317073171" height="7.31707317073171" fill="#000000" />
<rect x="153.658536585366" y="87.8048780487805" width="7.31707317073171" height="7.31707317073171" fill="#000000" />
<rect x="153.658536585366" y="109.756097560976" width="7.31707317073171" height="7.31707317073171" fill="#000000" />
<rect x="153.658536585366" y="124.390243902439" width="7.31707317073171" height="7.31707317073171" fill="#000000" />
<rect x="153.658536585366" y="139.024390243902" width="7.31707317073171" height="7.31707317073171" fill="#000000" />
<rect x="153.658536585366" y="146.341463414634" width="7.31707317073171" height="7.31707317073171" fill="#000000" />
<rect x="153.658536585366" y="168.292682926829" width="7.31707317073171" height="7.31707317073171" fill="#000000" />
<rect x="153.658536585366" y="175.609756097561" width="7.31707317073171" height="7.31707317073171" fill="#000000" />
<rect x="153.658536585366" y="182.926829268293" width="7.31707317073171" height="7.31707317073171" fill="#000000" />
<rect x="153.658536585366" y="190.243902439024" width="7.31707317073171" height="7.31707317073171" fill="#000000" />
<rect x="153.658536585366" y="197.560975609756" width="7.31707317073171" height="7.31707317073171" fill="#000000" />
<rect x="153.658536585366" y="204.878048780488" width="7.31707317073171" height="7.31707317073171" fill="#000000" />
<rect x="153.658536585366" y="219.512195121951" width="7.31707317073171" height="7.31707317073171" fill="#000000" />
<rect x="153.658536585366" y="226.829268292683" width="7.31707317073171" height="7.31707317073171" fill="#000000" />
<rect x="153.658536585366" y="234.146341463415" width="7.31707317073171" height="7.31707317073171" fill="#000000" />
<rect x="153.658536585366" y="241.463414634146" width="7.31707317073171" height="7.31707317073171" fill="#000000" />
<rect x="153.658536585366" y="256.09756097561" width="7.31707317073171" height="7.31707317073171" fill="#000000" />
<rect x="153.658536585366" y="263.414634146341" width="7.31707317073171" height="7.31707317073171" fill="#000000" />
<rect x="160.975609756098" y="29.2682926829268" width="7.31707317073171" height="7.31707317073171" fill="#000000" />
<rect x="160.975609756098" y="51.219512195122" width="7.31707317073171" height="7.31707317073171" fill="#000000" />
<rect x="160.975609756098" y="58.5365853658537" width="7.31707317073171" height="7.31707317073171" fill="#000000" />
<rect x="160.975609756098" y="65.8536585365854" width="7.31707317073171" height="7.31707317073171" fill="#000000" />
<rect x="160.975609756098" y="73.1707317073171" width="7.31707317073171" height="7.31707317073171" fill="#000000" />
<rect x="160.975609756098" y="80.4878048780488" width="7.31707317073171" height="7.31707317073171" fill="#000000" />
<rect x="160.975609756098" y="95.1219512195122" width="7.31707317073171" height="7.31707317073171" fill="#000000" />
<rect x="160.975609756098" y="131.707317073171" width="7.31707317073171" height="7.31707317073171" fill="#000000" />
<rect x="160.975609756098" y="139.024390243902" width="7.31707317073171" height="7.31707317073171" fill="#000000" />
<rect x="160.975609756098" y="153.658536585366" width="7.31707317073171" height="7.31707317073171" fill="#000000" />
<rect x="160.975609756098" y="168.292682926829" width="7.31707317073171" height="7.31707317073171" fill="#000000" />
<rect x="160.975609756098" y="182.926829268293" width="7.31707317073171" height="7.31707317073171" fill="#000000" />
<rect x="160.975609756098" y="212.19512195122" width="7.31707317073171" height="7.31707317073171" fill="#000000" />
<rect x="160.975609756098" y="226.829268292683" width="7.31707317073171" height="7.31707317073171" fill="#000000" />
<rect x="160.975609756098" y="241.463414634146" width="7.31707317073171" height="7.31707317073171" fill="#000000" />
<rect x="160.975609756098" y="248.780487804878" width="7.31707317073171" height="7.31707317073171" fill="#000000" />
<rect x="168.292682926829" y="36.5853658536585" width="7.31707317073171" height="7.31707317073171" fill="#000000" />
<rect x="168.292682926829" y="43.9024390243902" width="7.31707317073171" height="7.31707317073171" fill="#000000" />
<rect x="168.292682926829" y="65.8536585365854" width="7.31707317073171" height="7.31707317073171" fill="#000000" />
<rect x="168.292682926829" y="87.8048780487805" width="7.31707317073171" height="7.31707317073171" fill="#000000" />
<rect x="168.292682926829" y="117.073170731707" width="7.31707317073171" height="7.31707317073171" fill="#000000" />
<rect x="168.292682926829" y="139.024390243902" width="7.31707317073171" height="7.31707317073171" fill="#000000" />
<rect x="168.292682926829" y="146.341463414634" width="7.31707317073171" height="7.31707317073171" fill="#000000" />
<rect x="168.292682926829" y="153.658536585366" width="7.31707317073171" height="7.31707317073171" fill="#000000" />
<rect x="168.292682926829" y="175.609756097561" width="7.31707317073171" height="7.31707317073171" fill="#000000" />
<rect x="168.292682926829" y="204.878048780488" width="7.31707317073171" height="7.31707317073171" fill="#000000" />
<rect x="168.292682926829" y="234.146341463415" width="7.31707317073171" height="7.31707317073171" fill="#000000" />
<rect x="168.292682926829" y="241.463414634146" width="7.31707317073171" height="7.31707317073171" fill="#000000" />
<rect x="168.292682926829" y="263.414634146341" width="7.31707317073171" height="7.31707317073171" fill="#000000" />
<rect x="175.609756097561" y="29.2682926829268" width="7.31707317073171" height="7.31707317073171" fill="#000000" />
<rect x="175.609756097561" y="43.9024390243902" width="7.31707317073171" height="7.31707317073171" fill="#000000" />
<rect x="175.609756097561" y="51.219512195122" width="7.31707317073171" height="7.31707317073171" fill="#000000" />
<rect x="175.609756097561" y="73.1707317073171" width="7.31707317073171" height="7.31707317073171" fill="#000000" />
<rect x="175.609756097561" y="80.4878048780488" width="7.31707317073171" height="7.31707317073171" fill="#000000" />
<rect x="175.609756097561" y="87.8048780487805" width="7.31707317073171" height="7.31707317073171" fill="#000000" />
<rect x="175.609756097561" y="102.439024390244" width="7.31707317073171" height="7.31707317073171" fill="#000000" />
<rect x="175.609756097561" y="124.390243902439" width="7.31707317073171" height="7.31707317073171" fill="#000000" />
<rect x="175.609756097561" y="190.243902439024" width="7.31707317073171" height="7.31707317073171" fill="#000000" />
<rect x="175.609756097561" y="212.19512195122" width="7.31707317073171" height="7.31707317073171" fill="#000000" />
<rect x="175.609756097561" y="226.829268292683" width="7.31707317073171" height="7.31707317073171" fill="#000000" />
<rect x="175.609756097561" y="256.09756097561" width="7.31707317073171" height="7.31707317073171" fill="#000000" />
<rect x="175.609756097561" y="263.414634146341" width="7.31707317073171" height="7.31707317073171" fill="#000000" />
<rect x="182.926829268293" y="36.5853658536585" width="7.31707317073171" height="7.31707317073171" fill="#000000" />
<rect x="182.926829268293" y="43.9024390243902" width="7.31707317073171" height="7.31707317073171" fill="#000000" />
<rect x="182.926829268293" y="58.5365853658537" width="7.31707317073171" height="7.31707317073171" fill="#000000" />
<rect x="182.926829268293" y="80.4878048780488" width="7.31707317073171" height="7.31707317073171" fill="#000000" />
<rect x="182.926829268293" y="87.8048780487805" width="7.31707317073171" height="7.31707317073171" fill="#000000" />
<rect x="182.926829268293" y="95.1219512195122" width="7.31707317073171" height="7.31707317073171" fill="#000000" />
<rect x="182.926829268293" y="109.756097560976" width="7.31707317073171" height="7.31707317073171" fill="#000000" />
<rect x="182.926829268293" y="117.073170731707" width="7.31707317073171" height="7.31707317073171" fill="#000000" />
<rect x="182.926829268293" y="139.024390243902" width="7.31707317073171" height="7.31707317073171" fill="#000000" />
<rect x="182.926829268293" y="146.341463414634" width="7.31707317073171" height="7.31707317073171" fill="#000000" />
<rect x="182.926829268293" y="153.658536585366" width="7.31707317073171" height="7.31707317073171" fill="#000000" />
<rect x="182.926829268293" y="160.975609756098" width="7.31707317073171" height="7.31707317073171" fill="#000000" />
<rect x="182.926829268293" y="168.292682926829" width="7.31707317073171" height="7.31707317073171" fill="#000000" />
<rect x="182.926829268293" y="182.926829268293" width="7.31707317073171" height="7.31707317073171" fill="#000000" />
<rect x="182.926829268293" y="197.560975609756" width="7.31707317073171" height="7.31707317073171" fill="#000000" />
<rect x="182.926829268293" y="204.878048780488" width="7.31707317073171" height="7.31707317073171" fill="#000000" />
<rect x="182.926829268293" y="212.19512195122" width="7.31707317073171" height="7.31707317073171" fill="#000000" />
<rect x="182.926829268293" y="219.512195121951" width="7.31707317073171" height="7.31707317073171" fill="#000000" />
<rect x="182.926829268293" y="226.829268292683" width="7.31707317073171" height="7.31707317073171" fill="#000000" />
<rect x="182.926829268293" y="234.146341463415" width="7.31707317073171" height="7.31707317073171" fill="#000000" />
<rect x="182.926829268293" y="248.780487804878" width="7.31707317073171" height="7.31707317073171" fill="#000000" />
<rect x="182.926829268293" y="256.09756097561" width="7.31707317073171" height="7.31707317073171" fill="#000000" />
<rect x="190.243902439024" y="73.1707317073171" width="7.31707317073171" height="7.31707317073171" fill="#000000" />
<rect x="190.243902439024" y="80.4878048780488" width="7.31707317073171" height="7.31707317073171" fill="#000000" />
<rect x="190.243902439024" y="95.1219512195122" width="7.31707317073171" height="7.31707317073171" fill="#000000" />
<rect x="190.243902439024" y="117.073170731707" width="7.31707317073171" height="7.31707317073171" fill="#000000" />
<rect x="190.243902439024" y="124.390243902439" width="7.31707317073171" height="7.31707317073171" fill="#000000" />
<rect x="190.243902439024" y="139.024390243902" width="7.31707317073171" height="7.31707317073171" fill="#000000" />
<rect x="190.243902439024" y="153.658536585366" width="7.31707317073171" height="7.31707317073171" fill="#000000" />
<rect x="190.243902439024" y="175.609756097561" width="7.31707317073171" height="7.31707317073171" fill="#000000" />
<rect x="190.243902439024" y="212.19512195122" width="7.31707317073171" height="7.31707317073171" fill="#000000" />
<rect x="190.243902439024" y="219.512195121951" width="7.31707317073171" height="7.31707317073171" fill="#000000" />
<rect x="190.243902439024" y="241.463414634146" width="7.31707317073171" height="7.31707317073171" fill="#000000" />
<rect x="190.243902439024" y="248.780487804878" width="7.31707317073171" height="7.31707317073171" fill="#000000" />
<rect x="190.243902439024" y="263.414634146341" width="7.31707317073171" height="7.31707317073171" fill="#000000" />
<rect x="197.560975609756" y="29.2682926829268" width="7.31707317073171" height="7.31707317073171" fill="#000000" />
<rect x="197.560975609756" y="43.9024390243902" width="7.31707317073171" height="7.31707317073171" fill="#000000" />
<rect x="197.560975609756" y="51.219512195122" width="7.31707317073171" height="7.31707317073171" fill="#000000" />
<rect x="197.560975609756" y="58.5365853658537" width="7.31707317073171" height="7.31707317073171" fill="#000000" />
<rect x="197.560975609756" y="80.4878048780488" width="7.31707317073171" height="7.31707317073171" fill="#000000" />
<rect x="197.560975609756" y="95.1219512195122" width="7.31707317073171" height="7.31707317073171" fill="#000000" />
<rect x="197.560975609756" y="102.439024390244" width="7.31707317073171" height="7.31707317073171" fill="#000000" />
<rect x="197.560975609756" y="124.390243902439" width="7.31707317073171" height="7.31707317073171" fill="#000000" />
<rect x="197.560975609756" y="131.707317073171" width="7.31707317073171" height="7.31707317073171" fill="#000000" />
<rect x="197.560975609756" y="146.341463414634" width="7.31707317073171" height="7.31707317073171" fill="#000000" />
<rect x="197.560975609756" y="153.658536585366" width="7.31707317073171" height="7.31707317073171" fill="#000000" />
<rect x="197.560975609756" y="160.975609756098" width="7.31707317073171" height="7.31707317073171" fill="#000000" />
<rect x="197.560975609756" y="168.292682926829" width="7.31707317073171" height="7.31707317073171" fill="#000000" />
<rect x="197.560975609756" y="175.609756097561" width="7.31707317073171" height="7.31707317073171" fill="#000000" />
<rect x="197.560975609756" y="182.926829268293" width="7.31707317073171" height="7.31707317073171" fill="#000000" />
<rect x="197.560975609756" y="190.243902439024" width="7.31707317073171" height="7.31707317073171" fill="#000000" />
<rect x="197.560975609756" y="204.878048780488" width="7.31707317073171" height="7.31707317073171" fill="#000000" />
<rect x="197.560975609756" y="241.463414634146" width="7.31707317073171" height="7.31707317073171" fill="#000000" />
<rect x="197.560975609756" y="248.780487804878" width="7.31707317073171" height="7.31707317073171" fill="#000000" />
<rect x="197.560975609756" y="256.09756097561" width="7.31707317073171" height="7.31707317073171" fill="#000000" />
<rect x="197.560975609756" y="263.414634146341" width="7.31707317073171" height="7.31707317073171" fill="#000000" />
<rect x="204.878048780488" y="36.5853658536585" width="7.31707317073171" height="7.31707317073171" fill="#000000" />
<rect x="204.878048780488" y="43.9024390243902" width="7.31707317073171" height="7.31707317073171" fill="#000000" />
<rect x="204.878048780488" y="51.219512195122" width="7.31707317073171" height="7.31707317073171" fill="#000000" />
<rect x="204.878048780488" y="73.1707317073171" width="7.31707317073171" height="7.31707317073171" fill="#000000" />
<rect x="204.878048780488" y="87.8048780487805" width="7.31707317073171" height="7.31707317073171" fill="#000000" />
<rect x="204.878048780488" y="102.439024390244" width="7.31707317073171" height="7.31707317073171" fill="#000000" />
<rect x="204.878048780488" y="109.756097560976" width="7.31707317073171" height="7.31707317073171" fill="#000000" />
<rect x="204.878048780488" y="131.707317073171" width="7.31707317073171" height="7.31707317073171" fill="#000000" />
<rect x="204.878048780488" y="139.024390243902" width="7.31707317073171" height="7.31707317073171" fill="#000000" />
<rect x="204.878048780488" y="146.341463414634" width="7.31707317073171" height="7.31707317073171" fill="#000000" />
<rect x="204.878048780488" y="153.658536585366" width="7.31707317073171" height="7.31707317073171" fill="#000000" />
<rect x="204.878048780488" y="160.975609756098" width="7.31707317073171" height="7.31707317073171" fill="#000000" />
<rect x="204.878048780488" y="168.292682926829" width="7.31707317073171" height="7.31707317073171" fill="#000000" />
<rect x="204.878048780488" y="175.609756097561" width="7.31707317073171" height="7.31707317073171" fill="#000000" />
<rect x="204.878048780488" y="190.243902439024" width="7.31707317073171" height="7.31707317073171" fill="#000000" />
<rect x="204.878048780488" y="197.560975609756" width="7.31707317073171" height="7.31707317073171" fill="#000000" />
<rect x="204.878048780488" y="204.878048780488" width="7.31707317073171" height="7.31707317073171" fill="#000000" />
<rect x="204.878048780488" y="212.19512195122" width="7.31707317073171" height="7.31707317073171" fill="#000000" />
<rect x="204.878048780488" y="219.512195121951" width="7.31707317073171" height="7.31707317073171" fill="#000000" />
<rect x="204.878048780488" y="226.829268292683" width="7.31707317073171" height="7.31707317073171" fill="#000000" />
<rect x="204.878048780488" y="234.146341463415" width="7.31707317073171" height="7.31707317073171" fill="#000000" />
<rect x="204.878048780488" y="256.09756097561" width="7.31707317073171" height="7.31707317073171" fill="#000000" />
<rect x="204.878048780488" y="263.414634146341" width="7.31707317073171" height="7.31707317073171" fill="#000000" />
<rect x="212.19512195122" y="102.439024390244" width="7.31707317073171" height="7.31707317073171" fill="#000000" />
<rect x="212.19512195122" y="131.707317073171" width="7.31707317073171" height="7.31707317073171" fill="#000000" />
<rect x="212.19512195122" y="139.024390243902" width="7.31707317073171" height="7.31707317073171" fill="#000000" />
<rect x="212.19512195122" y="153.658536585366" width="7.31707317073171" height="7.31707317073171" fill="#000000" />
<rect x="212.19512195122" y="182.926829268293" width="7.31707317073171" height="7.31707317073171" fill="#000000" />
<rect x="212.19512195122" y="190.243902439024" width="7.31707317073171" height="7.31707317073171" fill="#000000" />
<rect x="212.19512195122" y="197.560975609756" width="7.31707317073171" height="7.31707317073171" fill="#000000" />
<rect x="212.19512195122" y="204.878048780488" width="7.31707317073171" height="7.31707317073171" fill="#000000" />
<rect x="212.19512195122" y="234.146341463415" width="7.31707317073171" height="7.31707317073171" fill="#000000" />
<rect x="212.19512195122" y="241.463414634146" width="7.31707317073171" height="7.31707317073171" fill="#000000" />
<rect x="212.19512195122" y="256.09756097561" width="7.31707317073171" height="7.31707317073171" fill="#000000" />
<rect x="212.19512195122" y="263.414634146341" width="7.31707317073171" height="7.31707317073171" fill="#000000" />
<rect x="219.512195121951" y="29.2682926829268" width="7.31707317073171" height="7.31707317073171" fill="#000000" />
<rect x="219.512195121951" y="36.5853658536585" width="7.31707317073171" height="7.31707317073171" fill="#000000" />
<rect x="219.512195121951" y="43.9024390243902" width="7.31707317073171" height="7.31707317073171" fill="#000000" />
<rect x="219.512195121951" y="51.219512195122" width="7.31707317073171" height="7.31707317073171" fill="#000000" />
<rect x="219.512195121951" y="58.5365853658537" width="7.31707317073171" height="7.31707317073171" fill="#000000" />
<rect x="219.512195121951" y="65.8536585365854" width="7.31707317073171" height="7.31707317073171" fill="#000000" />
<rect x="219.512195121951" y="73.1707317073171" width="7.31707317073171" height="7.31707317073171" fill="#000000" />
<rect x="219.512195121951" y="117.073170731707" width="7.31707317073171" height="7.31707317073171" fill="#000000" />
<rect x="219.512195121951" y="146.341463414634" width="7.31707317073171" height="7.31707317073171" fill="#000000" />
<rect x="219.512195121951" y="168.292682926829" width="7.31707317073171" height="7.31707317073171" fill="#000000" />
<rect x="219.512195121951" y="175.609756097561" width="7.31707317073171" height="7.31707317073171" fill="#000000" />
<rect x="219.512195121951" y="204.878048780488" width="7.31707317073171" height="7.31707317073171" fill="#000000" />
<rect x="219.512195121951" y="219.512195121951" width="7.31707317073171" height="7.31707317073171" fill="#000000" />
<rect x="219.512195121951" y="234.146341463415" width="7.31707317073171" height="7.31707317073171" fill="#000000" />
<rect x="219.512195121951" y="241.463414634146" width="7.31707317073171" height="7.31707317073171" fill="#000000" />
<rect x="219.512195121951" y="248.780487804878" width="7.31707317073171" height="7.31707317073171" fill="#000000" />
<rect x="219.512195121951" y="256.09756097561" width="7.31707317073171" height="7.31707317073171" fill="#000000" />
<rect x="226.829268292683" y="29.2682926829268" width="7.31707317073171" height="7.31707317073171" fill="#000000" />
<rect x="226.829268292683" y="73.1707317073171" width="7.31707317073171" height="7.31707317073171" fill="#000000" />
<rect x="226.829268292683" y="87.8048780487805" width="7.31707317073171" height="7.31707317073171" fill="#000000" />
<rect x="226.829268292683" y="95.1219512195122" width="7.31707317073171" height="7.31707317073171" fill="#000000" />
<rect x="226.829268292683" y="117.073170731707" width="7.31707317073171" height="7.31707317073171" fill="#000000" />
<rect x="226.829268292683" y="124.390243902439" width="7.31707317073171" height="7.31707317073171" fill="#000000" />
<rect x="226.829268292683" y="153.658536585366" width="7.31707317073171" height="7.31707317073171" fill="#000000" />
<rect x="226.829268292683" y="168.292682926829" width="7.31707317073171" height="7.31707317073171" fill="#000000" />
<rect x="226.829268292683" y="175.609756097561" width="7.31707317073171" height="7.31707317073171" fill="#000000" />
<rect x="226.829268292683" y="182.926829268293" width="7.31707317073171" height="7.31707317073171" fill="#000000" />
<rect x="226.829268292683" y="190.243902439024" width="7.31707317073171" height="7.31707317073171" fill="#000000" />
<rect x="226.829268292683" y="204.878048780488" width="7.31707317073171" height="7.31707317073171" fill="#000000" />
<rect x="226.829268292683" y="234.146341463415" width="7.31707317073171" height="7.31707317073171" fill="#000000" />
<rect x="226.829268292683" y="248.780487804878" width="7.31707317073171" height="7.31707317073171" fill="#000000" />
<rect x="226.829268292683" y="263.414634146341" width="7.31707317073171" height="7.31707317073171" fill="#000000" />
<rect x="234.146341463415" y="29.2682926829268" width="7.31707317073171" height="7.31707317073171" fill="#000000" />
<rect x="234.146341463415" y="43.9024390243902" width="7.31707317073171" height="7.31707317073171" fill="#000000" />
<rect x="234.146341463415" y="51.219512195122" width="7.31707317073171" height="7.31707317073171" fill="#000000" />
<rect x="234.146341463415" y="58.5365853658537" width="7.31707317073171" height="7.31707317073171" fill="#000000" />
<rect x="234.146341463415" y="73.1707317073171" width="7.31707317073171" height="7.31707317073171" fill="#000000" />
<rect x="234.146341463415" y="102.439024390244" width="7.31707317073171" height="7.31707317073171" fill="#000000" />
<rect x="234.146341463415" y="109.756097560976" width="7.31707317073171" height="7.31707317073171" fill="#000000" />
<rect x="234.146341463415" y="117.073170731707" width="7.31707317073171" height="7.31707317073171" fill="#000000" />
<rect x="234.146341463415" y="146.341463414634" width="7.31707317073171" height="7.31707317073171" fill="#000000" />
<rect x="234.146341463415" y="160.975609756098" width="7.31707317073171" height="7.31707317073171" fill="#000000" />
<rect x="234.146341463415" y="175.609756097561" width="7.31707317073171" height="7.31707317073171" fill="#000000" />
<rect x="234.146341463415" y="204.878048780488" width="7.31707317073171" height="7.31707317073171" fill="#000000" />
<rect x="234.146341463415" y="212.19512195122" width="7.31707317073171" height="7.31707317073171" fill="#000000" />
<rect x="234.146341463415" y="219.512195121951" width="7.31707317073171" height="7.31707317073171" fill="#000000" />
<rect x="234.146341463415" y="226.829268292683" width="7.31707317073171" height="7.31707317073171" fill="#000000" />
<rect x="234.146341463415" y="234.146341463415" width="7.31707317073171" height="7.31707317073171" fill="#000000" />
<rect x="234.146341463415" y="241.463414634146" width="7.31707317073171" height="7.31707317073171" fill="#000000" />
<rect x="234.146341463415" y="248.780487804878" width="7.31707317073171" height="7.31707317073171" fill="#000000" />
<rect x="241.463414634146" y="29.2682926829268" width="7.31707317073171" height="7.31707317073171" fill="#000000" />
<rect x="241.463414634146" y="43.9024390243902" width="7.31707317073171" height="7.31707317073171" fill="#000000" />
<rect x="241.463414634146" y="51.219512195122" width="7.31707317073171" height="7.31707317073171" fill="#000000" />
<rect x="241.463414634146" y="58.5365853658537" width="7.31707317073171" height="7.31707317073171" fill="#000000" />
<rect x="241.463414634146" y="73.1707317073171" width="7.31707317073171" height="7.31707317073171" fill="#000000" />
<rect x="241.463414634146" y="87.8048780487805" width="7.31707317073171" height="7.31707317073171" fill="#000000" />
<rect x="241.463414634146" y="109.756097560976" width="7.31707317073171" height="7.31707317073171" fill="#000000" />
<rect x="241.463414634146" y="117.073170731707" width="7.31707317073171" height="7.31707317073171" fill="#000000" />
<rect x="241.463414634146" y="131.707317073171" width="7.31707317073171" height="7.31707317073171" fill="#000000" />
<rect x="241.463414634146" y="139.024390243902" width="7.31707317073171" height="7.31707317073171" fill="#000000" />
<rect x="241.463414634146" y="153.658536585366" width="7.31707317073171" height="7.31707317073171" fill="#000000" />
<rect x="241.463414634146" y="168.292682926829" width="7.31707317073171" height="7.31707317073171" fill="#000000" />
<rect x="241.463414634146" y="182.926829268293" width="7.31707317073171" height="7.31707317073171" fill="#000000" />
<rect x="241.463414634146" y="204.878048780488" width="7.31707317073171" height="7.31707317073171" fill="#000000" />
<rect x="241.463414634146" y="212.19512195122" width="7.31707317073171" height="7.31707317073171" fill="#000000" />
<rect x="241.463414634146" y="234.146341463415" width="7.31707317073171" height="7.31707317073171" fill="#000000" />
<rect x="241.463414634146" y="241.463414634146" width="7.31707317073171" height="7.31707317073171" fill="#000000" />
<rect x="241.463414634146" y="263.414634146341" width="7.31707317073171" height="7.31707317073171" fill="#000000" />
<rect x="248.780487804878" y="29.2682926829268" width="7.31707317073171" height="7.31707317073171" fill="#000000" />
<rect x="248.780487804878" y="43.9024390243902" width="7.31707317073171" height="7.31707317073171" fill="#000000" />
<rect x="248.780487804878" y="51.219512195122" width="7.31707317073171" height="7.31707317073171" fill="#000000" />
<rect x="248.780487804878" y="58.5365853658537" width="7.31707317073171" height="7.31707317073171" fill="#000000" />
<rect x="248.780487804878" y="73.1707317073171" width="7.31707317073171" height="7.31707317073171" fill="#000000" />
<rect x="248.780487804878" y="87.8048780487805" width="7.31707317073171" height="7.31707317073171" fill="#000000" />
<rect x="248.780487804878" y="95.1219512195122" width="7.31707317073171" height="7.31707317073171" fill="#000000" />
<rect x="248.780487804878" y="102.439024390244" width="7.31707317073171" height="7.31707317073171" fill="#000000" />
<rect x="248.780487804878" y="131.707317073171" width="7.31707317073171" height="7.31707317073171" fill="#000000" />
<rect x="248.780487804878" y="160.975609756098" width="7.31707317073171" height="7.31707317073171" fill="#000000" />
<rect x="248.780487804878" y="190.243902439024" width="7.31707317073171" height="7.31707317073171" fill="#000000" />
<rect x="248.780487804878" y="212.19512195122" width="7.31707317073171" height="7.31707317073171" fill="#000000" />
<rect x="248.780487804878" y="219.512195121951" width="7.31707317073171" height="7.31707317073171" fill="#000000" />
<rect x="248.780487804878" y="241.463414634146" width="7.31707317073171" height="7.31707317073171" fill="#000000" />
<rect x="248.780487804878" y="248.780487804878" width="7.31707317073171" height="7.31707317073171" fill="#000000" />
<rect x="256.09756097561" y="29.2682926829268" width="7.31707317073171" height="7.31707317073171" fill="#000000" />
<rect x="256.09756097561" y="73.1707317073171" width="7.31707317073171" height="7.31707317073171" fill="#000000" />
<rect x="256.09756097561" y="87.8048780487805" width="7.31707317073171" height="7.31707317073171" fill="#000000" />
<rect x="256.09756097561" y="102.439024390244" width="7.31707317073171" height="7.31707317073171" fill="#000000" />
<rect x="256.09756097561" y="117.073170731707" width="7.31707317073171" height="7.31707317073171" fill="#000000" />
<rect x="256.09756097561" y="131.707317073171" width="7.31707317073171" height="7.31707317073171" fill="#000000" />
<rect x="256.09756097561" y="160.975609756098" width="7.31707317073171" height="7.31707317073171" fill="#000000" />
<rect x="256.09756097561" y="190.243902439024" width="7.31707317073171" height="7.31707317073171" fill="#000000" />
<rect x="256.09756097561" y="204.878048780488" width="7.31707317073171" height="7.31707317073171" fill="#000000" />
<rect x="256.09756097561" y="212.19512195122" width="7.31707317073171" height="7.31707317073171" fill="#000000" />
<rect x="256.09756097561" y="219.512195121951" width="7.31707317073171" height="7.31707317073171" fill="#000000" />
<rect x="256.09756097561" y="226.829268292683" width="7.31707317073171" height="7.31707317073171" fill="#000000" />
<rect x="256.09756097561" y="234.146341463415" width="7.31707317073171" height="7.31707317073171" fill="#000000" />
<rect x="263.414634146341" y="29.2682926829268" width="7.31707317073171" height="7.31707317073171" fill="#000000" />
<rect x="263.414634146341" y="36.5853658536585" width="7.31707317073171" height="7.31707317073171" fill="#000000" />
<rect x="263.414634146341" y="43.9024390243902" width="7.31707317073171" height="7.31707317073171" fill="#000000" />
<rect x="263.414634146341" y="51.219512195122" width="7.31707317073171" height="7.31707317073171" fill="#000000" />
<rect x="263.414634146341" y="58.5365853658537" width="7.31707317073171" height="7.31707317073171" fill="#000000" />
<rect x="263.414634146341" y="65.8536585365854" width="7.31707317073171" height="7.31707317073171" fill="#000000" />
<rect x="263.414634146341" y="73.1707317073171" width="7.31707317073171" height="7.31707317073171" fill="#000000" />
<rect x="263.414634146341" y="87.8048780487805" width="7.31707317073171" height="7.31707317073171" fill="#000000" />
<rect x="263.414634146341" y="117.073170731707" width="7.31707317073171" height="7.31707317073171" fill="#000000" />
<rect x="263.414634146341" y="146.341463414634" width="7.31707317073171" height="7.31707317073171" fill="#000000" />
<rect x="263.414634146341" y="175.609756097561" width="7.31707317073171" height="7.31707317073171" fill="#000000" />
<rect x="263.414634146341" y="226.829268292683" width="7.31707317073171" height="7.31707317073171" fill="#000000" />
<rect x="263.414634146341" y="263.414634146341" width="7.31707317073171" height="7.31707317073171" fill="#000000" />
</svg>