<svg version="1.1" baseProfile="full" shape-rendering="crispEdges" width="300" height="300" xmlns="http://www.w3.org/2000/svg"><rect x="0" y="0" width="300" height="300" fill="#FFFFFF" />
<rect x="36.3636363636364" y="36.3636363636364" width="9.09090909090909" height="9.09090909090909" fill="#000000" />
<rect x="36.3636363636364" y="45.4545454545455" width="9.09090909090909" height="9.09090909090909" fill="#000000" />
<rect x="36.3636363636364" y="54.5454545454545" width="9.09090909090909" height="9.09090909090909" fill="#000000" />
<rect x="36.3636363636364" y="63.6363636363636" width="9.09090909090909" height="9.09090909090909" fill="#000000" />
<rect x="36.3636363636364" y="72.7272727272727" width="9.09090909090909" height="9.09090909090909" fill="#000000" />
<rect x="36.3636363636364" y="81.8181818181818" width="9.09090909090909" height="9.09090909090909" fill="#000000" />
<rect x="36.3636363636364" y="90.9090909090909" width="9.09090909090909" height="9.09090909090909" fill="#000000" />
<rect x="36.3636363636364" y="109.090909090909" width="9.09090909090909" height="9.09090909090909" fill="#000000" />
<rect x="36.3636363636364" y="118.181818181818" width="9.09090909090909" height="9.09090909090909" fill="#000000" />
<rect x="36.3636363636364" y="127.272727272727" width="9.09090909090909" height="9.09090909090909" fill="#000000" />
<rect x="36.3636363636364" y="154.545454545455" width="9.09090909090909" height="9.09090909090909" fill="#000000" />
<rect x="36.3636363636364" y="163.636363636364" width="9.09090909090909" height="9.09090909090909" fill="#000000" />
<rect x="36.3636363636364" y="172.727272727273" width="9.09090909090909" height="9.09090909090909" fill="#000000" />
<rect x="36.3636363636364" y="181.818181818182" width="9.09090909090909" height="9.09090909090909" fill="#000000" />
<rect x="36.3636363636364" y="200" width="9.09090909090909" height="9.09090909090909" fill="#000000" />
<rect x="36.3636363636364" y="209.090909090909" width="9.09090909090909" height="9.09090909090909" fill="#000000" />
<rect x="36.3636363636364" y="218.181818181818" width="9.09090909090909" height="9.09090909090909" fill="#000000" />
<rect x="36.3636363636364" y="227.272727272727" width="9.09090909090909" height="9.09090909090909" fill="#000000" />
<rect x="36.3636363636364" y="236.363636363636" width="9.09090909090909" height="9.09090909090909" fill="#000000" />
<rect x="36.3636363636364" y="245.454545454545" width="9.09090909090909" height="9.09090909090909" fill="#000000" />
<rect x="36.3636363636364" y="254.545454545455" width="9.09090909090909" height="9.09090909090909" fill="#000000" />
<rect x="45.4545454545455" y="36.3636363636364" width="9.09090909090909" height="9.09090909090909" fill="#000000" />
<rect x="45.4545454545455" y="90.9090909090909" width="9.09090909090909" height="9.09090909090909" fill="#000000" />
<rect x="45.4545454545455" y="109.090909090909" width="9.09090909090909" height="9.09090909090909" fill="#000000" />
<rect x="45.4545454545455" y="154.545454545455" width="9.09090909090909" height="9.09090909090909" fill="#000000" />
<rect x="45.4545454545455" y="200" width="9.09090909090909" height="9.09090909090909" fill="#000000" />
<rect x="45.4545454545455" y="254.545454545455" width="9.09090909090909" height="9.09090909090909" fill="#000000" />
<rect x="54.5454545454545" y="36.3636363636364" width="9.09090909090909" height="9.09090909090909" fill="#000000" />
<rect x="54.5454545454545" y="54.5454545454545" width="9.09090909090909" height="9.09090909090909" fill="#000000" />
<rect x="54.5454545454545" y="63.6363636363636" width="9.09090909090909" height="9.09090909090909" fill="#000000" />
<rect x="54.5454545454545" y="72.7272727272727" width="9.09090909090909" height="9.09090909090909" fill="#000000" />
<rect x="54.5454545454545" y="90.9090909090909" width="9.09090909090909" height="9.09090909090909" fill="#000000" />
<rect x="54.5454545454545" y="109.090909090909" width="9.09090909090909" height="9.09090909090909" fill="#000000" />
<rect x="54.5454545454545" y="127.272727272727" width="9.09090909090909" height="9.09090909090909" fill="#000000" />
<rect x="54.5454545454545" y="136.363636363636" width="9.09090909090909" height="9.09090909090909" fill="#000000" />
<rect x="54.5454545454545" y="145.454545454545" width="9.09090909090909" height="9.09090909090909" fill="#000000" />
<rect x="54.5454545454545" y="163.636363636364" width="9.09090909090909" height="9.09090909090909" fill="#000000" />
<rect x="54.5454545454545" y="200" width="9.09090909090909" height="9.09090909090909" fill="#000000" />
<rect x="54.5454545454545" y="218.181818181818" width="9.09090909090909" height="9.09090909090909" fill="#000000" />
<rect x="54.5454545454545" y="227.272727272727" width="9.09090909090909" height="9.09090909090909" fill="#000000" />
<rect x="54.5454545454545" y="236.363636363636" width="9.09090909090909" height="9.09090909090909" fill="#000000" />
<rect x="54.5454545454545" y="254.545454545455" width="9.09090909090909" height="9.09090909090909" fill="#000000" />
<rect x="63.6363636363636" y="36.3636363636364" width="9.09090909090909" height="9.09090909090909" fill="#000000" />
<rect x="63.6363636363636" y="54.5454545454545" width="9.09090909090909" height="9.09090909090909" fill="#000000" />
<rect x="63.6363636363636" y="63.6363636363636" width="9.09090909090909" height="9.09090909090909" fill="#000000" />
<rect x="63.6363636363636" y="72.7272727272727" width="9.09090909090909" height="9.09090909090909" fill="#000000" />
<rect x="63.6363636363636" y="90.9090909090909" width="9.09090909090909" height="9.09090909090909" fill="#000000" />
<rect x="63.6363636363636" y="109.090909090909" width="9.09090909090909" height="9.09090909090909" fill="#000000" />
<rect x="63.6363636363636" y="118.181818181818" width="9.09090909090909" height="9.09090909090909" fill="#000000" />
<rect x="63.6363636363636" y="127.272727272727" width="9.09090909090909" height="9.09090909090909" fill="#000000" />
<rect x="63.6363636363636" y="154.545454545455" width="9.09090909090909" height="9.09090909090909" fill="#000000" />
<rect x="63.6363636363636" y="172.727272727273" width="9.09090909090909" height="9.09090909090909" fill="#000000" />
<rect x="63.6363636363636" y="181.818181818182" width="9.09090909090909" height="9.09090909090909" fill="#000000" />
<rect x="63.6363636363636" y="200" width="9.09090909090909" height="9.09090909090909" fill="#000000" />
<rect x="63.6363636363636" y="218.181818181818" width="9.09090909090909" height="9.09090909090909" fill="#000000" />
<rect x="63.6363636363636" y="227.272727272727" width="9.09090909090909" height="9.09090909090909" fill="#000000" />
<rect x="63.6363636363636" y="236.363636363636" width="9.09090909090909" height="9.09090909090909" fill="#000000" />
<rect x="63.6363636363636" y="254.545454545455" width="9.09090909090909" height="9.09090909090909" fill="#000000" />
<rect x="72.7272727272727" y="36.3636363636364" width="9.09090909090909" height="9.09090909090909" fill="#000000" />
<rect x="72.7272727272727" y="54.5454545454545" width="9.09090909090909" height="9.09090909090909" fill="#000000" />
<rect x="72.7272727272727" y="63.6363636363636" width="9.09090909090909" height="9.09090909090909" fill="#000000" />
<rect x="72.7272727272727" y="72.7272727272727" width="9.09090909090909" height="9.09090909090909" fill="#000000" />
<rect x="72.7272727272727" y="90.9090909090909" width="9.09090909090909" height="9.09090909090909" fill="#000000" />
<rect x="72.7272727272727" y="109.090909090909" width="9.09090909090909" height="9.09090909090909" fill="#000000" />
<rect x="72.7272727272727" y="118.181818181818" width="9.09090909090909" height="9.09090909090909" fill="#000000" />
<rect x="72.7272727272727" y="127.272727272727" width="9.09090909090909" height="9.09090909090909" fill="#000000" />
<rect x="72.7272727272727" y="136.363636363636" width="9.09090909090909" height="9.09090909090909" fill="#000000" />
<rect x="72.7272727272727" y="154.545454545455" width="9.09090909090909" height="9.09090909090909" fill="#000000" />
<rect x="72.7272727272727" y="163.636363636364" width="9.09090909090909" height="9.09090909090909" fill="#000000" />
<rect x="72.7272727272727" y="172.727272727273" width="9.09090909090909" height="9.09090909090909" fill="#000000" />
<rect x="72.7272727272727" y="181.818181818182" width="9.09090909090909" height="9.09090909090909" fill="#000000" />
<rect x="72.7272727272727" y="200" width="9.09090909090909" height="9.09090909090909" fill="#000000" />
<rect x="72.7272727272727" y="218.181818181818" width="9.09090909090909" height="9.09090909090909" fill="#000000" />
<rect x="72.7272727272727" y="227.272727272727" width="9.09090909090909" height="9.09090909090909" fill="#000000" />
<rect x="72.7272727272727" y="236.363636363636" width="9.09090909090909" height="9.09090909090909" fill="#000000" />
<rect x="72.7272727272727" y="254.545454545455" width="9.09090909090909" height="9.09090909090909" fill="#000000" />
<rect x="81.8181818181818" y="36.3636363636364" width="9.09090909090909" height="9.09090909090909" fill="#000000" />
<rect x="81.8181818181818" y="90.9090909090909" width="9.09090909090909" height="9.09090909090909" fill="#000000" />
<rect x="81.8181818181818" y="127.272727272727" width="9.09090909090909" height="9.09090909090909" fill="#000000" />
<rect x="81.8181818181818" y="136.363636363636" width="9.09090909090909" height="9.09090909090909" fill="#000000" />
<rect x="81.8181818181818" y="154.545454545455" width="9.09090909090909" height="9.09090909090909" fill="#000000" />
<rect x="81.8181818181818" y="172.727272727273" width="9.09090909090909" height="9.09090909090909" fill="#000000" />
<rect x="81.8181818181818" y="200" width="9.09090909090909" height="9.09090909090909" fill="#000000" />
<rect x="81.8181818181818" y="254.545454545455" width="9.09090909090909" height="9.09090909090909" fill="#000000" />
<rect x="90.9090909090909" y="36.3636363636364" width="9.09090909090909" height="9.09090909090909" fill="#000000" />
<rect x="90.9090909090909" y="45.4545454545455" width="9.09090909090909" height="9.09090909090909" fill="#000000" />
<rect x="90.9090909090909" y="54.5454545454545" width="9.09090909090909" height="9.09090909090909" fill="#000000" />
<rect x="90.9090909090909" y="63.6363636363636" width="9.09090909090909" height="9.09090909090909" fill="#000000" />
<rect x="90.9090909090909" y="72.7272727272727" width="9.09090909090909" height="9.09090909090909" fill="#000000" />
<rect x="90.9090909090909" y="81.8181818181818" width="9.09090909090909" height="9.09090909090909" fill="#000000" />
<rect x="90.9090909090909" y="90.9090909090909" width="9.09090909090909" height="9.09090909090909" fill="#000000" />
<rect x="90.9090909090909" y="109.090909090909" width="9.09090909090909" height="9.09090909090909" fill="#000000" />
<rect x="90.9090909090909" y="127.272727272727" width="9.09090909090909" height="9.09090909090909" fill="#000000" />
<rect x="90.9090909090909" y="145.454545454545" width="9.09090909090909" height="9.09090909090909" fill="#000000" />
<rect x="90.9090909090909" y="163.636363636364" width="9.09090909090909" height="9.09090909090909" fill="#000000" />
<rect x="90.9090909090909" y="181.818181818182" width="9.09090909090909" height="9.09090909090909" fill="#000000" />
<rect x="90.9090909090909" y="200" width="9.09090909090909" height="9.09090909090909" fill="#000000" />
<rect x="90.9090909090909" y="209.090909090909" width="9.09090909090909" height="9.09090909090909" fill="#000000" />
<rect x="90.9090909090909" y="218.181818181818" width="9.09090909090909" height="9.09090909090909" fill="#000000" />
<rect x="90.9090909090909" y="227.272727272727" width="9.09090909090909" height="9.09090909090909" fill="#000000" />
<rect x="90.9090909090909" y="236.363636363636" width="9.09090909090909" height="9.09090909090909" fill="#000000" />
<rect x="90.9090909090909" y="245.454545454545" width="9.09090909090909" height="9.09090909090909" fill="#000000" />
<rect x="90.9090909090909" y="254.545454545455" width="9.09090909090909" height="9.09090909090909" fill="#000000" />
<rect x="100" y="109.090909090909" width="9.09090909090909" height="9.09090909090909" fill="#000000" />
<rect x="100" y="118.181818181818" width="9.09090909090909" height="9.09090909090909" fill="#000000" />
<rect x="100" y="136.363636363636" width="9.09090909090909" height="9.09090909090909" fill="#000000" />
<rect x="100" y="145.454545454545" width="9.09090909090909" height="9.09090909090909" fill="#000000" />
<rect x="100" y="163.636363636364" width="9.09090909090909" height="9.09090909090909" fill="#000000" />
<rect x="100" y="181.818181818182" width="9.09090909090909" height="9.09090909090909" fill="#000000" />
<rect x="109.090909090909" y="45.4545454545455" width="9.09090909090909" height="9.09090909090909" fill="#000000" />
<rect x="109.090909090909" y="63.6363636363636" width="9.09090909090909" height="9.09090909090909" fill="#000000" />
<rect x="109.090909090909" y="81.8181818181818" width="9.09090909090909" height="9.09090909090909" fill="#000000" />
<rect x="109.090909090909" y="90.9090909090909" width="9.09090909090909" height="9.09090909090909" fill="#000000" />
<rect x="109.090909090909" y="109.090909090909" width="9.09090909090909" height="9.09090909090909" fill="#000000" />
<rect x="109.090909090909" y="118.181818181818" width="9.09090909090909" height="9.09090909090909" fill="#000000" />
<rect x="109.090909090909" y="127.272727272727" width="9.09090909090909" height="9.09090909090909" fill="#000000" />
<rect x="109.090909090909" y="136.363636363636" width="9.09090909090909" height="9.09090909090909" fill="#000000" />
<rect x="109.090909090909" y="163.636363636364" width="9.09090909090909" height="9.09090909090909" fill="#000000" />
<rect x="109.090909090909" y="181.818181818182" width="9.09090909090909" height="9.09090909090909" fill="#000000" />
<rect x="109.090909090909" y="190.909090909091" width="9.09090909090909" height="9.09090909090909" fill="#000000" />
<rect x="109.090909090909" y="200" width="9.09090909090909" height="9.09090909090909" fill="#000000" />
<rect x="109.090909090909" y="218.181818181818" width="9.09090909090909" height="9.09090909090909" fill="#000000" />
<rect x="109.090909090909" y="227.272727272727" width="9.09090909090909" height="9.09090909090909" fill="#000000" />
<rect x="109.090909090909" y="236.363636363636" width="9.09090909090909" height="9.09090909090909" fill="#000000" />
<rect x="109.090909090909" y="245.454545454545" width="9.09090909090909" height="9.09090909090909" fill="#000000" />
<rect x="109.090909090909" y="254.545454545455" width="9.09090909090909" height="9.09090909090909" fill="#000000" />
<rect x="118.181818181818" y="36.3636363636364" width="9.09090909090909" height="9.09090909090909" fill="#000000" />
<rect x="118.181818181818" y="45.4545454545455" width="9.09090909090909" height="9.09090909090909" fill="#000000" />
<rect x="118.181818181818" y="54.5454545454545" width="9.09090909090909" height="9.09090909090909" fill="#000000" />
<rect x="118.181818181818" y="63.6363636363636" width="9.09090909090909" height="9.09090909090909" fill="#000000" />
<rect x="118.181818181818" y="109.090909090909" width="9.09090909090909" height="9.09090909090909" fill="#000000" />
<rect x="118.181818181818" y="118.181818181818" width="9.09090909090909" height="9.09090909090909" fill="#000000" />
<rect x="118.181818181818" y="127.272727272727" width="9.09090909090909" height="9.09090909090909" fill="#000000" />
<rect x="118.181818181818" y="136.363636363636" width="9.09090909090909" height="9.09090909090909" fill="#000000" />
<rect x="118.181818181818" y="145.454545454545" width="9.09090909090909" height="9.09090909090909" fill="#000000" />
<rect x="118.181818181818" y="154.545454545455" width="9.09090909090909" height="9.09090909090909" fill="#000000" />
<rect x="118.181818181818" y="181.818181818182" width="9.09090909090909" height="9.09090909090909" fill="#000000" />
<rect x="118.181818181818" y="227.272727272727" width="9.09090909090909" height="9.09090909090909" fill="#000000" />
<rect x="118.181818181818" y="254.545454545455" width="9.09090909090909" height="9.09090909090909" fill="#000000" />
<rect x="127.272727272727" y="54.5454545454545" width="9.09090909090909" height="9.09090909090909" fill="#000000" />
<rect x="127.272727272727" y="72.7272727272727" width="9.09090909090909" height="9.09090909090909" fill="#000000" />
<rect x="127.272727272727" y="81.8181818181818" width="9.09090909090909" height="9.09090909090909" fill="#000000" />
<rect x="127.272727272727" y="90.9090909090909" width="9.09090909090909" height="9.09090909090909" fill="#000000" />
<rect x="127.272727272727" y="109.090909090909" width="9.09090909090909" height="9.09090909090909" fill="#000000" />
<rect x="127.272727272727" y="136.363636363636" width="9.09090909090909" height="9.09090909090909" fill="#000000" />
<rect x="127.272727272727" y="154.545454545455" width="9.09090909090909" height="9.09090909090909" fill="#000000" />
<rect x="127.272727272727" y="163.636363636364" width="9.09090909090909" height="9.09090909090909" fill="#000000" />
<rect x="127.272727272727" y="209.090909090909" width="9.09090909090909" height="9.09090909090909" fill="#000000" />
<rect x="127.272727272727" y="227.272727272727" width="9.09090909090909" height="9.09090909090909" fill="#000000" />
<rect x="127.272727272727" y="236.363636363636" width="9.09090909090909" height="9.09090909090909" fill="#000000" />
<rect x="136.363636363636" y="45.4545454545455" width="9.09090909090909" height="9.09090909090909" fill="#000000" />
<rect x="136.363636363636" y="54.5454545454545" width="9.09090909090909" height="9.09090909090909" fill="#000000" />
<rect x="136.363636363636" y="63.6363636363636" width="9.09090909090909" height="9.09090909090909" fill="#000000" />
<rect x="136.363636363636" y="127.272727272727" width="9.09090909090909" height="9.09090909090909" fill="#000000" />
<rect x="136.363636363636" y="136.363636363636" width="9.09090909090909" height="9.09090909090909" fill="#000000" />
<rect x="136.363636363636" y="145.454545454545" width="9.09090909090909" height="9.09090909090909" fill="#000000" />
<rect x="136.363636363636" y="200" width="9.09090909090909" height="9.09090909090909" fill="#000000" />
<rect x="136.363636363636" y="209.090909090909" width="9.09090909090909" height="9.09090909090909" fill="#000000" />
<rect x="136.363636363636" y="218.181818181818" width="9.09090909090909" height="9.09090909090909" fill="#000000" />
<rect x="145.454545454545" y="45.4545454545455" width="9.09090909090909" height="9.09090909090909" fill="#000000" />
<rect x="145.454545454545" y="72.7272727272727" width="9.09090909090909" height="9.09090909090909" fill="#000000" />
<rect x="145.454545454545" y="90.9090909090909" width="9.09090909090909" height="9.09090909090909" fill="#000000" />
<rect x="145.454545454545" y="100" width="9.09090909090909" height="9.09090909090909" fill="#000000" />
<rect x="145.454545454545" y="109.090909090909" width="9.09090909090909" height="9.09090909090909" fill="#000000" />
<rect x="145.454545454545" y="127.272727272727" width="9.09090909090909" height="9.09090909090909" fill="#000000" />
<rect x="145.454545454545" y="154.545454545455" width="9.09090909090909" height="9.09090909090909" fill="#000000" />
<rect x="145.454545454545" y="172.727272727273" width="9.09090909090909" height="9.09090909090909" fill="#000000" />
<rect x="145.454545454545" y="181.818181818182" width="9.09090909090909" height="9.09090909090909" fill="#000000" />
<rect x="145.454545454545" y="200" width="9.09090909090909" height="9.09090909090909" fill="#000000" />
<rect x="145.454545454545" y="227.272727272727" width="9.09090909090909" height="9.09090909090909" fill="#000000" />
<rect x="145.454545454545" y="245.454545454545" width="9.09090909090909" height="9.09090909090909" fill="#000000" />
<rect x="145.454545454545" y="254.545454545455" width="9.09090909090909" height="9.09090909090909" fill="#000000" />
<rect x="154.545454545455" y="63.6363636363636" width="9.09090909090909" height="9.09090909090909" fill="#000000" />
<rect x="154.545454545455" y="109.090909090909" width="9.09090909090909" height="9.09090909090909" fill="#000000" />
<rect x="154.545454545455" y="127.272727272727" width="9.09090909090909" height="9.09090909090909" fill="#000000" />
<rect x="154.545454545455" y="145.454545454545" width="9.09090909090909" height="9.09090909090909" fill="#000000" />
<rect x="154.545454545455" y="181.818181818182" width="9.09090909090909" height="9.09090909090909" fill="#000000" />
<rect x="154.545454545455" y="190.909090909091" width="9.09090909090909" height="9.09090909090909" fill="#000000" />
<rect x="154.545454545455" y="200" width="9.09090909090909" height="9.09090909090909" fill="#000000" />
<rect x="154.545454545455" y="227.272727272727" width="9.09090909090909" height="9.09090909090909" fill="#000000" />
<rect x="154.545454545455" y="236.363636363636" width="9.09090909090909" height="9.09090909090909" fill="#000000" />
<rect x="154.545454545455" y="245.454545454545" width="9.09090909090909" height="9.09090909090909" fill="#000000" />
<rect x="163.636363636364" y="36.3636363636364" width="9.09090909090909" height="9.09090909090909" fill="#000000" />
<rect x="163.636363636364" y="45.4545454545455" width="9.09090909090909" height="9.09090909090909" fill="#000000" />
<rect x="163.636363636364" y="54.5454545454545" width="9.09090909090909" height="9.09090909090909" fill="#000000" />
<rect x="163.636363636364" y="72.7272727272727" width="9.09090909090909" height="9.09090909090909" fill="#000000" />
<rect x="163.636363636364" y="90.9090909090909" width="9.09090909090909" height="9.09090909090909" fill="#000000" />
<rect x="163.636363636364" y="100" width="9.09090909090909" height="9.09090909090909" fill="#000000" />
<rect x="163.636363636364" y="118.181818181818" width="9.09090909090909" height="9.09090909090909" fill="#000000" />
<rect x="163.636363636364" y="127.272727272727" width="9.09090909090909" height="9.09090909090909" fill="#000000" />
<rect x="163.636363636364" y="136.363636363636" width="9.09090909090909" height="9.09090909090909" fill="#000000" />
<rect x="163.636363636364" y="154.545454545455" width="9.09090909090909" height="9.09090909090909" fill="#000000" />
<rect x="163.636363636364" y="163.636363636364" width="9.09090909090909" height="9.09090909090909" fill="#000000" />
<rect x="163.636363636364" y="200" width="9.09090909090909" height="9.09090909090909" fill="#000000" />
<rect x="163.636363636364" y="209.090909090909" width="9.09090909090909" height="9.09090909090909" fill="#000000" />
<rect x="163.636363636364" y="236.363636363636" width="9.09090909090909" height="9.09090909090909" fill="#000000" />
<rect x="163.636363636364" y="254.545454545455" width="9.09090909090909" height="9.09090909090909" fill="#000000" />
<rect x="172.727272727273" y="45.4545454545455" width="9.09090909090909" height="9.09090909090909" fill="#000000" />
<rect x="172.727272727273" y="81.8181818181818" width="9.09090909090909" height="9.09090909090909" fill="#000000" />
<rect x="172.727272727273" y="100" width="9.09090909090909" height="9.09090909090909" fill="#000000" />
<rect x="172.727272727273" y="109.090909090909" width="9.09090909090909" height="9.09090909090909" fill="#000000" />
<rect x="172.727272727273" y="127.272727272727" width="9.09090909090909" height="9.09090909090909" fill="#000000" />
<rect x="172.727272727273" y="163.636363636364" width="9.09090909090909" height="9.09090909090909" fill="#000000" />
<rect x="172.727272727273" y="172.727272727273" width="9.09090909090909" height="9.09090909090909" fill="#000000" />
<rect x="172.727272727273" y="181.818181818182" width="9.09090909090909" height="9.09090909090909" fill="#000000" />
<rect x="172.727272727273" y="209.090909090909" width="9.09090909090909" height="9.09090909090909" fill="#000000" />
<rect x="172.727272727273" y="218.181818181818" width="9.09090909090909" height="9.09090909090909" fill="#000000" />
<rect x="172.727272727273" y="227.272727272727" width="9.09090909090909" height="9.09090909090909" fill="#000000" />
<rect x="172.727272727273" y="245.454545454545" width="9.09090909090909" height="9.09090909090909" fill="#000000" />
<rect x="172.727272727273" y="254.545454545455" width="9.09090909090909" height="9.09090909090909" fill="#000000" />
<rect x="181.818181818182" y="63.6363636363636" width="9.09090909090909" height="9.09090909090909" fill="#000000" />
<rect x="181.818181818182" y="81.8181818181818" width="9.09090909090909" height="9.09090909090909" fill="#000000" />
<rect x="181.818181818182" y="90.9090909090909" width="9.09090909090909" height="9.09090909090909" fill="#000000" />
<rect x="181.818181818182" y="109.090909090909" width="9.09090909090909" height="9.09090909090909" fill="#000000" />
<rect x="181.818181818182" y="136.363636363636" width="9.09090909090909" height="9.09090909090909" fill="#000000" />
<rect x="181.818181818182" y="181.818181818182" width="9.09090909090909" height="9.09090909090909" fill="#000000" />
<rect x="181.818181818182" y="190.909090909091" width="9.09090909090909" height="9.09090909090909" fill="#000000" />
<rect x="181.818181818182" y="200" width="9.09090909090909" height="9.09090909090909" fill="#000000" />
<rect x="181.818181818182" y="209.090909090909" width="9.09090909090909" height="9.09090909090909" fill="#000000" />
<rect x="181.818181818182" y="218.181818181818" width="9.09090909090909" height="9.09090909090909" fill="#000000" />
<rect x="181.818181818182" y="227.272727272727" width="9.09090909090909" height="9.09090909090909" fill="#000000" />
<rect x="181.818181818182" y="236.363636363636" width="9.09090909090909" height="9.09090909090909" fill="#000000" />
<rect x="181.818181818182" y="245.454545454545" width="9.09090909090909" height="9.09090909090909" fill="#000000" />
<rect x="190.909090909091" y="109.090909090909" width="9.09090909090909" height="9.09090909090909" fill="#000000" />
<rect x="190.909090909091" y="118.181818181818" width="9.09090909090909" height="9.09090909090909" fill="#000000" />
<rect x="190.909090909091" y="127.272727272727" width="9.09090909090909" height="9.09090909090909" fill="#000000" />
<rect x="190.909090909091" y="136.363636363636" width="9.09090909090909" height="9.09090909090909" fill="#000000" />
<rect x="190.909090909091" y="163.636363636364" width="9.09090909090909" height="9.09090909090909" fill="#000000" />
<rect x="190.909090909091" y="181.818181818182" width="9.09090909090909" height="9.09090909090909" fill="#000000" />
<rect x="190.909090909091" y="218.181818181818" width="9.09090909090909" height="9.09090909090909" fill="#000000" />
<rect x="190.909090909091" y="236.363636363636" width="9.09090909090909" height="9.09090909090909" fill="#000000" />
<rect x="200" y="36.3636363636364" width="9.09090909090909" height="9.09090909090909" fill="#000000" />
<rect x="200" y="45.4545454545455" width="9.09090909090909" height="9.09090909090909" fill="#000000" />
<rect x="200" y="54.5454545454545" width="9.09090909090909" height="9.09090909090909" fill="#000000" />
<rect x="200" y="63.6363636363636" width="9.09090909090909" height="9.09090909090909" fill="#000000" />
<rect x="200" y="72.7272727272727" width="9.09090909090909" height="9.09090909090909" fill="#000000" />
<rect x="200" y="81.8181818181818" width="9.09090909090909" height="9.09090909090909" fill="#000000" />
<rect x="200" y="90.9090909090909" width="9.09090909090909" height="9.09090909090909" fill="#000000" />
<rect x="200" y="127.272727272727" width="9.09090909090909" height="9.09090909090909" fill="#000000" />
<rect x="200" y="145.454545454545" width="9.09090909090909" height="9.09090909090909" fill="#000000" />
<rect x="200" y="181.818181818182" width="9.09090909090909" height="9.09090909090909" fill="#000000" />
<rect x="200" y="200" width="9.09090909090909" height="9.09090909090909" fill="#000000" />
<rect x="200" y="218.181818181818" width="9.09090909090909" height="9.09090909090909" fill="#000000" />
<rect x="200" y="227.272727272727" width="9.09090909090909" height="9.09090909090909" fill="#000000" />
<rect x="200" y="245.454545454545" width="9.09090909090909" height="9.09090909090909" fill="#000000" />
<rect x="200" y="254.545454545455" width="9.09090909090909" height="9.09090909090909" fill="#000000" />
<rect x="209.090909090909" y="36.3636363636364" width="9.09090909090909" height="9.09090909090909" fill="#000000" />
<rect x="209.090909090909" y="90.9090909090909" width="9.09090909090909" height="9.09090909090909" fill="#000000" />
<rect x="209.090909090909" y="109.090909090909" width="9.09090909090909" height="9.09090909090909" fill="#000000" />
<rect x="209.090909090909" y="145.454545454545" width="9.09090909090909" height="9.09090909090909" fill="#000000" />
<rect x="209.090909090909" y="163.636363636364" width="9.09090909090909" height="9.09090909090909" fill="#000000" />
<rect x="209.090909090909" y="181.818181818182" width="9.09090909090909" height="9.09090909090909" fill="#000000" />
<rect x="209.090909090909" y="218.181818181818" width="9.09090909090909" height="9.09090909090909" fill="#000000" />
<rect x="209.090909090909" y="227.272727272727" width="9.09090909090909" height="9.09090909090909" fill="#000000" />
<rect x="209.090909090909" y="245.454545454545" width="9.09090909090909" height="9.09090909090909" fill="#000000" />
<rect x="209.090909090909" y="254.545454545455" width="9.09090909090909" height="9.09090909090909" fill="#000000" />
<rect x="218.181818181818" y="36.3636363636364" width="9.09090909090909" height="9.09090909090909" fill="#000000" />
<rect x="218.181818181818" y="54.5454545454545" width="9.09090909090909" height="9.09090909090909" fill="#000000" />
<rect x="218.181818181818" y="63.6363636363636" width="9.09090909090909" height="9.09090909090909" fill="#000000" />
<rect x="218.181818181818" y="72.7272727272727" width="9.09090909090909" height="9.09090909090909" fill="#000000" />
<rect x="218.181818181818" y="90.9090909090909" width="9.09090909090909" height="9.09090909090909" fill="#000000" />
<rect x="218.181818181818" y="127.272727272727" width="9.09090909090909" height="9.09090909090909" fill="#000000" />
<rect x="218.181818181818" y="145.454545454545" width="9.09090909090909" height="9.09090909090909" fill="#000000" />
<rect x="218.181818181818" y="181.818181818182" width="9.09090909090909" height="9.09090909090909" fill="#000000" />
<rect x="218.181818181818" y="190.909090909091" width="9.09090909090909" height="9.09090909090909" fill="#000000" />
<rect x="218.181818181818" y="200" width="9.09090909090909" height="9.09090909090909" fill="#000000" />
<rect x="218.181818181818" y="209.090909090909" width="9.09090909090909" height="9.09090909090909" fill="#000000" />
<rect x="218.181818181818" y="218.181818181818" width="9.09090909090909" height="9.09090909090909" fill="#000000" />
<rect x="218.181818181818" y="227.272727272727" width="9.09090909090909" height="9.09090909090909" fill="#000000" />
<rect x="218.181818181818" y="245.454545454545" width="9.09090909090909" height="9.09090909090909" fill="#000000" />
<rect x="218.181818181818" y="254.545454545455" width="9.09090909090909" height="9.09090909090909" fill="#000000" />
<rect x="227.272727272727" y="36.3636363636364" width="9.09090909090909" height="9.09090909090909" fill="#000000" />
<rect x="227.272727272727" y="54.5454545454545" width="9.09090909090909" height="9.09090909090909" fill="#000000" />
<rect x="227.272727272727" y="63.6363636363636" width="9.09090909090909" height="9.09090909090909" fill="#000000" />
<rect x="227.272727272727" y="72.7272727272727" width="9.09090909090909" height="9.09090909090909" fill="#000000" />
<rect x="227.272727272727" y="90.9090909090909" width="9.09090909090909" height="9.09090909090909" fill="#000000" />
<rect x="227.272727272727" y="109.090909090909" width="9.09090909090909" height="9.09090909090909" fill="#000000" />
<rect x="227.272727272727" y="127.272727272727" width="9.09090909090909" height="9.09090909090909" fill="#000000" />
<rect x="227.272727272727" y="154.545454545455" width="9.09090909090909" height="9.09090909090909" fill="#000000" />
<rect x="227.272727272727" y="163.636363636364" width="9.09090909090909" height="9.09090909090909" fill="#000000" />
<rect x="227.272727272727" y="172.727272727273" width="9.09090909090909" height="9.09090909090909" fill="#000000" />
<rect x="227.272727272727" y="190.909090909091" width="9.09090909090909" height="9.09090909090909" fill="#000000" />
<rect x="227.272727272727" y="200" width="9.09090909090909" height="9.09090909090909" fill="#000000" />
<rect x="227.272727272727" y="209.090909090909" width="9.09090909090909" height="9.09090909090909" fill="#000000" />
<rect x="227.272727272727" y="218.181818181818" width="9.09090909090909" height="9.09090909090909" fill="#000000" />
<rect x="227.272727272727" y="245.454545454545" width="9.09090909090909" height="9.09090909090909" fill="#000000" />
<rect x="227.272727272727" y="254.545454545455" width="9.09090909090909" height="9.09090909090909" fill="#000000" />
<rect x="236.363636363636" y="36.3636363636364" width="9.09090909090909" height="9.09090909090909" fill="#000000" />
<rect x="236.363636363636" y="54.5454545454545" width="9.09090909090909" height="9.09090909090909" fill="#000000" />
<rect x="236.363636363636" y="63.6363636363636" width="9.09090909090909" height="9.09090909090909" fill="#000000" />
<rect x="236.363636363636" y="72.7272727272727" width="9.09090909090909" height="9.09090909090909" fill="#000000" />
<rect x="236.363636363636" y="90.9090909090909" width="9.09090909090909" height="9.09090909090909" fill="#000000" />
<rect x="236.363636363636" y="145.454545454545" width="9.09090909090909" height="9.09090909090909" fill="#000000" />
<rect x="236.363636363636" y="181.818181818182" width="9.09090909090909" height="9.09090909090909" fill="#000000" />
<rect x="236.363636363636" y="190.909090909091" width="9.09090909090909" height="9.09090909090909" fill="#000000" />
<rect x="236.363636363636" y="200" width="9.09090909090909" height="9.09090909090909" fill="#000000" />
<rect x="236.363636363636" y="218.181818181818" width="9.09090909090909" height="9.09090909090909" fill="#000000" />
<rect x="236.363636363636" y="227.272727272727" width="9.09090909090909" height="9.09090909090909" fill="#000000" />
<rect x="236.363636363636" y="236.363636363636" width="9.09090909090909" height="9.09090909090909" fill="#000000" />
<rect x="236.363636363636" y="254.545454545455" width="9.09090909090909" height="9.09090909090909" fill="#000000" />
<rect x="245.454545454545" y="36.3636363636364" width="9.09090909090909" height="9.09090909090909" fill="#000000" />
<rect x="245.454545454545" y="90.9090909090909" width="9.09090909090909" height="9.09090909090909" fill="#000000" />
<rect x="245.454545454545" y="109.090909090909" width="9.09090909090909" height="9.09090909090909" fill="#000000" />
<rect x="245.454545454545" y="118.181818181818" width="9.09090909090909" height="9.09090909090909" fill="#000000" />
<rect x="245.454545454545" y="127.272727272727" width="9.09090909090909" height="9.09090909090909" fill="#000000" />
<rect x="245.454545454545" y="145.454545454545" width="9.09090909090909" height="9.09090909090909" fill="#000000" />
<rect x="245.454545454545" y="154.545454545455" width="9.09090909090909" height="9.09090909090909" fill="#000000" />
<rect x="245.454545454545" y="163.636363636364" width="9.09090909090909" height="9.09090909090909" fill="#000000" />
<rect x="245.454545454545" y="200" width="9.09090909090909" height="9.09090909090909" fill="#000000" />
<rect x="245.454545454545" y="218.181818181818" width="9.09090909090909" height="9.09090909090909" fill="#000000" />
<rect x="245.454545454545" y="227.272727272727" width="9.09090909090909" height="9.09090909090909" fill="#000000" />
<rect x="245.454545454545" y="254.545454545455" width="9.09090909090909" height="9.09090909090909" fill="#000000" />
<rect x="254.545454545455" y="36.3636363636364" width="9.09090909090909" height="9.09090909090909" fill="#000000" />
<rect x="254.545454545455" y="45.4545454545455" width="9.09090909090909" height="9.09090909090909" fill="#000000" />
<rect x="254.545454545455" y="54.5454545454545" width="9.09090909090909" height="9.09090909090909" fill="#000000" />
<rect x="254.545454545455" y="63.6363636363636" width="9.09090909090909" height="9.09090909090909" fill="#000000" />
<rect x="254.545454545455" y="72.7272727272727" width="9.09090909090909" height="9.09090909090909" fill="#000000" />
<rect x="254.545454545455" y="81.8181818181818" width="9.09090909090909" height="9.09090909090909" fill="#000000" />
<rect x="254.545454545455" y="90.9090909090909" width="9.09090909090909" height="9.09090909090909" fill="#000000" />
<rect x="254.545454545455" y="127.272727272727" width="9.09090909090909" height="9.09090909090909" fill="#000000" />
<rect x="254.545454545455" y="136.363636363636" width="9.09090909090909" height="9.09090909090909" fill="#000000" />
<rect x="254.545454545455" y="145.454545454545" width="9.09090909090909" height="9.09090909090909" fill="#000000" />
<rect x="254.545454545455" y="163.636363636364" width="9.09090909090909" height="9.09090909090909" fill="#000000" />
<rect x="254.545454545455" y="172.727272727273" width="9.09090909090909" height="9.09090909090909" fill="#000000" />
<rect x="254.545454545455" y="200" width="9.09090909090909" height="9.09090909090909" fill="#000000" />
<rect x="254.545454545455" y="218.181818181818" width="9.09090909090909" height="9.09090909090909" fill="#000000" />
<rect x="254.545454545455" y="227.272727272727" width="9.09090909090909" height="9.09090909090909" fill="#000000" />
<rect x="254.545454545455" y="236.363636363636" width="9.09090909090909" height="9.09090909090909" fill="#000000" />
<rect x="254.545454545455" y="245.454545454545" width="9.09090909090909" height="9.09090909090909" fill="#000000" />
<rect x="254.545454545455" y="254.545454545455" width="9.09090909090909" height="9.09090909090909" fill="#000000" />
</svg>